<svg xmlns="http://www.w3.org/2000/svg" xmlns:xlink="http://www.w3.org/1999/xlink" width="900" zoomAndPan="magnify" viewBox="0 0 675 449.999984" height="600" preserveAspectRatio="xMidYMid meet" version="1.0"><defs><filter x="0%" y="0%" width="100%" height="100%" id="94db1274f4"><feColorMatrix values="0 0 0 0 1 0 0 0 0 1 0 0 0 0 1 0 0 0 1 0" color-interpolation-filters="sRGB"/></filter><mask id="90a985bd31"><g filter="url(#94db1274f4)"><rect x="-67.5" width="810" fill="#000000" y="-44.999998" height="539.99998" fill-opacity="0.7"/></g></mask><clipPath id="9516ef6e08"><rect x="0" width="675" y="0" height="450"/></clipPath></defs><g mask="url(#90a985bd31)"><g transform="matrix(1, 0, 0, 1, 0, 0)"><g clip-path="url(#9516ef6e08)"><path fill="#7f7e7c" d="M 672.15625 335.609375 C 671.300781 336.550781 670.773438 338.007812 670.125 339.09375 C 669.394531 340.324219 668.359375 341.824219 667.960938 343.191406 C 667.238281 345.671875 669.519531 347.917969 669.917969 350.285156 C 670.109375 351.425781 670.054688 352.601562 669.625 353.683594 C 668.644531 356.136719 665.660156 357.257812 666.511719 360.371094 C 666.882812 361.726562 667.859375 362.851562 669 363.671875 C 670.683594 364.875 672.871094 365.464844 674.882812 365.125 L 674.882812 334.296875 C 673.878906 334.210938 673.296875 334.363281 672.15625 335.609375 " fill-opacity="1" fill-rule="nonzero"/><path fill="#7f7e7c" d="M 655.449219 321.375 C 652.808594 323.277344 653.304688 328.484375 656.5625 333.007812 C 659.816406 337.527344 664.597656 339.652344 667.242188 337.75 C 669.882812 335.847656 669.386719 330.640625 666.128906 326.117188 C 662.875 321.59375 658.09375 319.472656 655.449219 321.375 " fill-opacity="1" fill-rule="nonzero"/><path fill="#7f7e7c" d="M 651.59375 339.253906 C 648.949219 341.15625 649.445312 346.363281 652.703125 350.886719 C 655.957031 355.40625 660.738281 357.53125 663.382812 355.628906 C 666.023438 353.726562 665.527344 348.519531 662.273438 343.996094 C 659.015625 339.472656 654.234375 337.351562 651.59375 339.253906 " fill-opacity="1" fill-rule="nonzero"/><path fill="#7f7e7c" d="M 671.085938 311.816406 C 667.945312 312.929688 666.945312 318.191406 668.855469 323.566406 C 670.167969 327.269531 672.519531 330.058594 674.882812 331.074219 L 674.882812 312.367188 C 673.59375 311.628906 672.273438 311.394531 671.085938 311.816406 " fill-opacity="1" fill-rule="nonzero"/><path fill="#7f7e7c" d="M 520.132812 341.402344 C 519.15625 340.804688 518.367188 339.9375 517.710938 338.996094 C 516.355469 337.058594 515.34375 335.546875 512.984375 334.808594 C 511.179688 334.238281 509.289062 334.636719 507.433594 334.4375 C 505.53125 334.234375 505.003906 333.925781 503.464844 335.609375 C 502.609375 336.550781 502.082031 338.007812 501.433594 339.09375 C 500.703125 340.324219 499.671875 341.824219 499.269531 343.191406 C 498.546875 345.671875 500.828125 347.917969 501.226562 350.285156 C 501.417969 351.425781 501.363281 352.601562 500.933594 353.683594 C 499.953125 356.136719 496.972656 357.257812 497.820312 360.371094 C 498.191406 361.726562 499.167969 362.851562 500.308594 363.671875 C 502.523438 365.25 505.597656 365.777344 508.011719 364.527344 C 509.671875 363.664062 511.238281 362.226562 512.503906 360.867188 C 513.527344 359.765625 514.332031 358.328125 514.214844 356.828125 C 514.097656 355.328125 512.773438 353.878906 511.277344 354.046875 C 512.28125 353.398438 513.628906 353.644531 514.691406 354.191406 C 515.753906 354.734375 516.671875 355.542969 517.757812 356.035156 C 521.523438 357.75 525.023438 356.605469 528.289062 354.40625 C 528.851562 354.03125 529.421875 353.640625 529.835938 353.105469 C 530.210938 352.621094 530.433594 352.039062 530.636719 351.453125 C 531 350.378906 531.226562 349.25 531.171875 348.140625 C 531.132812 347.371094 530.960938 346.609375 530.613281 345.875 C 528.699219 341.808594 523.292969 343.339844 520.132812 341.402344 " fill-opacity="1" fill-rule="nonzero"/><path fill="#7f7e7c" d="M 486.761719 321.375 C 484.117188 323.277344 484.613281 328.484375 487.871094 333.007812 C 491.125 337.527344 495.90625 339.652344 498.550781 337.75 C 501.191406 335.847656 500.695312 330.640625 497.4375 326.117188 C 494.183594 321.59375 489.402344 319.472656 486.761719 321.375 " fill-opacity="1" fill-rule="nonzero"/><path fill="#7f7e7c" d="M 482.902344 339.253906 C 480.261719 341.15625 480.753906 346.363281 484.011719 350.886719 C 487.265625 355.40625 492.046875 357.53125 494.691406 355.628906 C 497.332031 353.726562 496.835938 348.519531 493.582031 343.996094 C 490.324219 339.472656 485.542969 337.351562 482.902344 339.253906 " fill-opacity="1" fill-rule="nonzero"/><path fill="#7f7e7c" d="M 502.394531 311.816406 C 499.253906 312.929688 498.253906 318.191406 500.164062 323.566406 C 502.070312 328.941406 506.160156 332.394531 509.304688 331.285156 C 512.445312 330.167969 513.445312 324.90625 511.539062 319.53125 C 509.628906 314.15625 505.539062 310.699219 502.394531 311.816406 " fill-opacity="1" fill-rule="nonzero"/><path fill="#7f7e7c" d="M 519.691406 318.996094 C 516.550781 320.109375 515.550781 325.371094 517.457031 330.746094 C 519.363281 336.121094 523.457031 339.574219 526.601562 338.460938 C 529.742188 337.34375 530.742188 332.085938 528.832031 326.707031 C 526.925781 321.335938 522.832031 317.878906 519.691406 318.996094 " fill-opacity="1" fill-rule="nonzero"/><path fill="#7f7e7c" d="M 351.441406 341.402344 C 350.464844 340.804688 349.675781 339.9375 349.019531 338.996094 C 347.667969 337.058594 346.652344 335.546875 344.292969 334.808594 C 342.488281 334.238281 340.597656 334.636719 338.742188 334.4375 C 336.839844 334.234375 336.3125 333.925781 334.773438 335.609375 C 333.917969 336.550781 333.390625 338.007812 332.742188 339.09375 C 332.011719 340.324219 330.980469 341.824219 330.578125 343.191406 C 329.855469 345.671875 332.136719 347.917969 332.535156 350.285156 C 332.726562 351.425781 332.675781 352.601562 332.242188 353.683594 C 331.265625 356.136719 328.28125 357.257812 329.128906 360.371094 C 329.5 361.726562 330.476562 362.851562 331.621094 363.671875 C 333.832031 365.25 336.90625 365.777344 339.320312 364.527344 C 340.980469 363.664062 342.546875 362.226562 343.8125 360.867188 C 344.835938 359.765625 345.640625 358.328125 345.523438 356.828125 C 345.40625 355.328125 344.085938 353.878906 342.585938 354.046875 C 343.589844 353.398438 344.9375 353.644531 346 354.191406 C 347.0625 354.734375 347.980469 355.542969 349.070312 356.035156 C 352.832031 357.75 356.332031 356.605469 359.597656 354.40625 C 360.160156 354.03125 360.730469 353.640625 361.144531 353.105469 C 361.519531 352.621094 361.742188 352.039062 361.945312 351.453125 C 362.3125 350.378906 362.535156 349.25 362.480469 348.140625 C 362.441406 347.371094 362.269531 346.609375 361.921875 345.875 C 360.007812 341.808594 354.605469 343.339844 351.441406 341.402344 " fill-opacity="1" fill-rule="nonzero"/><path fill="#7f7e7c" d="M 318.070312 321.375 C 315.425781 323.277344 315.921875 328.484375 319.179688 333.007812 C 322.433594 337.527344 327.214844 339.652344 329.859375 337.75 C 332.5 335.847656 332.003906 330.640625 328.746094 326.117188 C 325.492188 321.59375 320.710938 319.472656 318.070312 321.375 " fill-opacity="1" fill-rule="nonzero"/><path fill="#7f7e7c" d="M 314.210938 339.253906 C 311.570312 341.15625 312.066406 346.363281 315.320312 350.886719 C 318.574219 355.40625 323.355469 357.53125 326 355.628906 C 328.640625 353.726562 328.144531 348.519531 324.890625 343.996094 C 321.636719 339.472656 316.855469 337.351562 314.210938 339.253906 " fill-opacity="1" fill-rule="nonzero"/><path fill="#7f7e7c" d="M 333.703125 311.816406 C 330.5625 312.929688 329.5625 318.191406 331.472656 323.566406 C 333.378906 328.941406 337.472656 332.394531 340.613281 331.285156 C 343.753906 330.167969 344.753906 324.90625 342.847656 319.53125 C 340.941406 314.15625 336.847656 310.699219 333.703125 311.816406 " fill-opacity="1" fill-rule="nonzero"/><path fill="#7f7e7c" d="M 351 318.996094 C 347.859375 320.109375 346.859375 325.371094 348.765625 330.746094 C 350.671875 336.121094 354.765625 339.574219 357.910156 338.460938 C 361.050781 337.34375 362.050781 332.085938 360.140625 326.707031 C 358.234375 321.335938 354.140625 317.878906 351 318.996094 " fill-opacity="1" fill-rule="nonzero"/><path fill="#7f7e7c" d="M 182.753906 341.402344 C 181.773438 340.804688 180.984375 339.9375 180.328125 338.996094 C 178.976562 337.058594 177.964844 335.546875 175.601562 334.808594 C 173.796875 334.238281 171.90625 334.636719 170.054688 334.4375 C 168.148438 334.234375 167.621094 333.925781 166.082031 335.609375 C 165.226562 336.550781 164.699219 338.007812 164.050781 339.09375 C 163.320312 340.324219 162.289062 341.824219 161.886719 343.191406 C 161.164062 345.671875 163.445312 347.917969 163.84375 350.285156 C 164.035156 351.425781 163.984375 352.601562 163.550781 353.683594 C 162.574219 356.136719 159.589844 357.257812 160.4375 360.371094 C 160.808594 361.726562 161.789062 362.851562 162.929688 363.671875 C 165.140625 365.25 168.214844 365.777344 170.628906 364.527344 C 172.289062 363.664062 173.855469 362.226562 175.121094 360.867188 C 176.144531 359.765625 176.949219 358.328125 176.832031 356.828125 C 176.714844 355.328125 175.394531 353.878906 173.894531 354.046875 C 174.898438 353.398438 176.246094 353.644531 177.308594 354.191406 C 178.371094 354.734375 179.289062 355.542969 180.378906 356.035156 C 184.140625 357.75 187.640625 356.605469 190.90625 354.40625 C 191.46875 354.03125 192.039062 353.640625 192.453125 353.105469 C 192.828125 352.621094 193.054688 352.039062 193.253906 351.453125 C 193.621094 350.378906 193.84375 349.25 193.789062 348.140625 C 193.75 347.371094 193.582031 346.609375 193.230469 345.875 C 191.316406 341.808594 185.914062 343.339844 182.753906 341.402344 " fill-opacity="1" fill-rule="nonzero"/><path fill="#7f7e7c" d="M 149.378906 321.375 C 146.734375 323.277344 147.230469 328.484375 150.488281 333.007812 C 153.742188 337.527344 158.523438 339.652344 161.167969 337.75 C 163.808594 335.847656 163.3125 330.640625 160.054688 326.117188 C 156.800781 321.59375 152.019531 319.472656 149.378906 321.375 " fill-opacity="1" fill-rule="nonzero"/><path fill="#7f7e7c" d="M 145.519531 339.253906 C 142.878906 341.15625 143.375 346.363281 146.628906 350.886719 C 149.882812 355.40625 154.664062 357.53125 157.308594 355.628906 C 159.949219 353.726562 159.453125 348.519531 156.199219 343.996094 C 152.945312 339.472656 148.164062 337.351562 145.519531 339.253906 " fill-opacity="1" fill-rule="nonzero"/><path fill="#7f7e7c" d="M 165.011719 311.816406 C 161.871094 312.929688 160.871094 318.191406 162.78125 323.566406 C 164.6875 328.941406 168.78125 332.394531 171.921875 331.285156 C 175.0625 330.167969 176.0625 324.90625 174.15625 319.53125 C 172.25 314.15625 168.15625 310.699219 165.011719 311.816406 " fill-opacity="1" fill-rule="nonzero"/><path fill="#7f7e7c" d="M 182.308594 318.996094 C 179.167969 320.109375 178.167969 325.371094 180.074219 330.746094 C 181.984375 336.121094 186.074219 339.574219 189.21875 338.460938 C 192.359375 337.34375 193.359375 332.085938 191.449219 326.707031 C 189.542969 321.335938 185.453125 317.878906 182.308594 318.996094 " fill-opacity="1" fill-rule="nonzero"/><path fill="#7f7e7c" d="M 6.429688 360.867188 C 7.453125 359.765625 8.257812 358.328125 8.140625 356.828125 C 8.023438 355.328125 6.703125 353.878906 5.203125 354.046875 C 6.207031 353.398438 7.554688 353.644531 8.617188 354.191406 C 9.679688 354.734375 10.597656 355.542969 11.6875 356.035156 C 15.449219 357.75 18.949219 356.605469 22.214844 354.40625 C 22.777344 354.03125 23.351562 353.640625 23.765625 353.105469 C 24.136719 352.621094 24.363281 352.039062 24.5625 351.453125 C 24.929688 350.378906 25.152344 349.25 25.097656 348.140625 C 25.058594 347.371094 24.886719 346.609375 24.542969 345.875 C 22.625 341.808594 17.222656 343.339844 14.0625 341.402344 C 13.082031 340.804688 12.292969 339.9375 11.636719 338.996094 C 10.285156 337.058594 9.273438 335.546875 6.910156 334.808594 C 5.109375 334.238281 3.214844 334.636719 1.363281 334.4375 C 0.871094 334.386719 0.46875 334.328125 0.117188 334.296875 L 0.117188 365.125 C 0.746094 365.019531 1.363281 364.824219 1.9375 364.527344 C 3.597656 363.664062 5.164062 362.226562 6.429688 360.867188 " fill-opacity="1" fill-rule="nonzero"/><path fill="#7f7e7c" d="M 3.230469 331.285156 C 6.371094 330.167969 7.371094 324.90625 5.464844 319.53125 C 4.277344 316.183594 2.242188 313.582031 0.117188 312.367188 L 0.117188 331.074219 C 1.183594 331.535156 2.253906 331.628906 3.230469 331.285156 " fill-opacity="1" fill-rule="nonzero"/><path fill="#7f7e7c" d="M 13.617188 318.996094 C 10.476562 320.109375 9.476562 325.371094 11.382812 330.746094 C 13.292969 336.121094 17.386719 339.574219 20.527344 338.460938 C 23.667969 337.34375 24.667969 332.085938 22.757812 326.707031 C 20.851562 321.335938 16.761719 317.878906 13.617188 318.996094 " fill-opacity="1" fill-rule="nonzero"/><path fill="#7f7e7c" d="M 672.15625 166.941406 C 671.300781 167.882812 670.773438 169.339844 670.125 170.425781 C 669.394531 171.65625 668.359375 173.15625 667.960938 174.523438 C 667.238281 177.003906 669.519531 179.25 669.917969 181.617188 C 670.109375 182.757812 670.054688 183.933594 669.625 185.015625 C 668.644531 187.46875 665.660156 188.589844 666.511719 191.703125 C 666.882812 193.058594 667.859375 194.183594 669 195.003906 C 670.683594 196.207031 672.871094 196.796875 674.882812 196.457031 L 674.882812 165.628906 C 673.878906 165.542969 673.296875 165.695312 672.15625 166.941406 " fill-opacity="1" fill-rule="nonzero"/><path fill="#7f7e7c" d="M 655.449219 152.707031 C 652.808594 154.609375 653.304688 159.816406 656.5625 164.339844 C 659.816406 168.863281 664.597656 170.984375 667.242188 169.082031 C 669.882812 167.179688 669.386719 161.972656 666.128906 157.449219 C 662.875 152.929688 658.09375 150.804688 655.449219 152.707031 " fill-opacity="1" fill-rule="nonzero"/><path fill="#7f7e7c" d="M 651.59375 170.585938 C 648.949219 172.488281 649.445312 177.695312 652.703125 182.21875 C 655.957031 186.742188 660.738281 188.863281 663.382812 186.960938 C 666.023438 185.058594 665.527344 179.851562 662.273438 175.328125 C 659.015625 170.804688 654.234375 168.683594 651.59375 170.585938 " fill-opacity="1" fill-rule="nonzero"/><path fill="#7f7e7c" d="M 671.085938 143.148438 C 667.945312 144.261719 666.945312 149.523438 668.855469 154.898438 C 670.167969 158.601562 672.519531 161.394531 674.882812 162.40625 L 674.882812 143.699219 C 673.59375 142.960938 672.273438 142.726562 671.085938 143.148438 " fill-opacity="1" fill-rule="nonzero"/><path fill="#7f7e7c" d="M 520.132812 172.734375 C 519.15625 172.136719 518.367188 171.269531 517.710938 170.328125 C 516.355469 168.390625 515.34375 166.878906 512.984375 166.140625 C 511.179688 165.574219 509.289062 165.96875 507.433594 165.769531 C 505.53125 165.566406 505.003906 165.257812 503.464844 166.941406 C 502.609375 167.882812 502.082031 169.339844 501.433594 170.425781 C 500.703125 171.65625 499.671875 173.15625 499.269531 174.523438 C 498.546875 177.003906 500.828125 179.25 501.226562 181.617188 C 501.417969 182.757812 501.363281 183.933594 500.933594 185.015625 C 499.953125 187.46875 496.972656 188.589844 497.820312 191.703125 C 498.191406 193.058594 499.167969 194.183594 500.308594 195.003906 C 502.523438 196.582031 505.597656 197.109375 508.011719 195.859375 C 509.671875 194.996094 511.238281 193.5625 512.503906 192.199219 C 513.527344 191.097656 514.332031 189.660156 514.214844 188.160156 C 514.097656 186.660156 512.773438 185.210938 511.277344 185.378906 C 512.28125 184.730469 513.628906 184.976562 514.691406 185.523438 C 515.753906 186.066406 516.671875 186.875 517.757812 187.367188 C 521.523438 189.082031 525.023438 187.9375 528.289062 185.738281 C 528.851562 185.363281 529.421875 184.976562 529.835938 184.4375 C 530.210938 183.953125 530.433594 183.371094 530.636719 182.789062 C 531 181.710938 531.226562 180.585938 531.171875 179.472656 C 531.132812 178.703125 530.960938 177.941406 530.613281 177.207031 C 528.699219 173.140625 523.292969 174.671875 520.132812 172.734375 " fill-opacity="1" fill-rule="nonzero"/><path fill="#7f7e7c" d="M 486.761719 152.707031 C 484.117188 154.609375 484.613281 159.816406 487.871094 164.339844 C 491.125 168.863281 495.90625 170.984375 498.550781 169.082031 C 501.191406 167.179688 500.695312 161.972656 497.4375 157.449219 C 494.183594 152.929688 489.402344 150.804688 486.761719 152.707031 " fill-opacity="1" fill-rule="nonzero"/><path fill="#7f7e7c" d="M 482.902344 170.585938 C 480.261719 172.488281 480.753906 177.695312 484.011719 182.21875 C 487.265625 186.742188 492.046875 188.863281 494.691406 186.960938 C 497.332031 185.058594 496.835938 179.851562 493.582031 175.328125 C 490.324219 170.804688 485.542969 168.683594 482.902344 170.585938 " fill-opacity="1" fill-rule="nonzero"/><path fill="#7f7e7c" d="M 502.394531 143.148438 C 499.253906 144.261719 498.253906 149.523438 500.164062 154.898438 C 502.070312 160.273438 506.160156 163.726562 509.304688 162.617188 C 512.445312 161.5 513.445312 156.238281 511.539062 150.863281 C 509.628906 145.488281 505.539062 142.03125 502.394531 143.148438 " fill-opacity="1" fill-rule="nonzero"/><path fill="#7f7e7c" d="M 519.691406 150.328125 C 516.550781 151.441406 515.550781 156.703125 517.457031 162.078125 C 519.363281 167.453125 523.457031 170.90625 526.601562 169.792969 C 529.742188 168.675781 530.742188 163.417969 528.832031 158.039062 C 526.925781 152.667969 522.832031 149.210938 519.691406 150.328125 " fill-opacity="1" fill-rule="nonzero"/><path fill="#7f7e7c" d="M 351.441406 172.734375 C 350.464844 172.136719 349.675781 171.269531 349.019531 170.328125 C 347.667969 168.390625 346.652344 166.878906 344.292969 166.140625 C 342.488281 165.574219 340.597656 165.96875 338.742188 165.769531 C 336.839844 165.566406 336.3125 165.257812 334.773438 166.941406 C 333.917969 167.882812 333.390625 169.339844 332.742188 170.425781 C 332.011719 171.65625 330.980469 173.15625 330.578125 174.523438 C 329.855469 177.003906 332.136719 179.25 332.535156 181.617188 C 332.726562 182.757812 332.675781 183.933594 332.242188 185.015625 C 331.265625 187.46875 328.28125 188.589844 329.128906 191.703125 C 329.5 193.058594 330.476562 194.183594 331.621094 195.003906 C 333.832031 196.582031 336.90625 197.109375 339.320312 195.859375 C 340.980469 194.996094 342.546875 193.5625 343.8125 192.199219 C 344.835938 191.097656 345.640625 189.660156 345.523438 188.160156 C 345.40625 186.660156 344.085938 185.210938 342.585938 185.378906 C 343.589844 184.730469 344.9375 184.976562 346 185.523438 C 347.0625 186.066406 347.980469 186.875 349.070312 187.367188 C 352.832031 189.082031 356.332031 187.9375 359.597656 185.738281 C 360.160156 185.363281 360.730469 184.976562 361.144531 184.4375 C 361.519531 183.953125 361.742188 183.371094 361.945312 182.789062 C 362.3125 181.710938 362.535156 180.585938 362.480469 179.472656 C 362.441406 178.703125 362.269531 177.941406 361.921875 177.207031 C 360.007812 173.140625 354.605469 174.671875 351.441406 172.734375 " fill-opacity="1" fill-rule="nonzero"/><path fill="#7f7e7c" d="M 318.070312 152.707031 C 315.425781 154.609375 315.921875 159.816406 319.179688 164.339844 C 322.433594 168.863281 327.214844 170.984375 329.859375 169.082031 C 332.5 167.179688 332.003906 161.972656 328.746094 157.449219 C 325.492188 152.929688 320.710938 150.804688 318.070312 152.707031 " fill-opacity="1" fill-rule="nonzero"/><path fill="#7f7e7c" d="M 314.210938 170.585938 C 311.570312 172.488281 312.066406 177.695312 315.320312 182.21875 C 318.574219 186.742188 323.355469 188.863281 326 186.960938 C 328.640625 185.058594 328.144531 179.851562 324.890625 175.328125 C 321.636719 170.804688 316.855469 168.683594 314.210938 170.585938 " fill-opacity="1" fill-rule="nonzero"/><path fill="#7f7e7c" d="M 333.703125 143.148438 C 330.5625 144.261719 329.5625 149.523438 331.472656 154.898438 C 333.378906 160.273438 337.472656 163.726562 340.613281 162.617188 C 343.753906 161.5 344.753906 156.238281 342.847656 150.863281 C 340.941406 145.488281 336.847656 142.03125 333.703125 143.148438 " fill-opacity="1" fill-rule="nonzero"/><path fill="#7f7e7c" d="M 351 150.328125 C 347.859375 151.441406 346.859375 156.703125 348.765625 162.078125 C 350.671875 167.453125 354.765625 170.90625 357.910156 169.792969 C 361.050781 168.675781 362.050781 163.417969 360.140625 158.039062 C 358.234375 152.667969 354.140625 149.210938 351 150.328125 " fill-opacity="1" fill-rule="nonzero"/><path fill="#7f7e7c" d="M 182.753906 172.734375 C 181.773438 172.136719 180.984375 171.269531 180.328125 170.328125 C 178.976562 168.390625 177.964844 166.878906 175.601562 166.140625 C 173.796875 165.574219 171.90625 165.96875 170.054688 165.769531 C 168.148438 165.566406 167.621094 165.257812 166.082031 166.941406 C 165.226562 167.882812 164.699219 169.339844 164.050781 170.425781 C 163.320312 171.65625 162.289062 173.15625 161.886719 174.523438 C 161.164062 177.003906 163.445312 179.25 163.84375 181.617188 C 164.035156 182.757812 163.984375 183.933594 163.550781 185.015625 C 162.574219 187.46875 159.589844 188.589844 160.4375 191.703125 C 160.808594 193.058594 161.789062 194.183594 162.929688 195.003906 C 165.140625 196.582031 168.214844 197.109375 170.628906 195.859375 C 172.289062 194.996094 173.855469 193.5625 175.121094 192.199219 C 176.144531 191.097656 176.949219 189.660156 176.832031 188.160156 C 176.714844 186.660156 175.394531 185.210938 173.894531 185.378906 C 174.898438 184.730469 176.246094 184.976562 177.308594 185.523438 C 178.371094 186.066406 179.289062 186.875 180.378906 187.367188 C 184.140625 189.082031 187.640625 187.9375 190.90625 185.738281 C 191.46875 185.363281 192.039062 184.976562 192.453125 184.4375 C 192.828125 183.953125 193.054688 183.371094 193.253906 182.789062 C 193.621094 181.710938 193.84375 180.585938 193.789062 179.472656 C 193.75 178.703125 193.582031 177.941406 193.230469 177.207031 C 191.316406 173.140625 185.914062 174.671875 182.753906 172.734375 " fill-opacity="1" fill-rule="nonzero"/><path fill="#7f7e7c" d="M 149.378906 152.707031 C 146.734375 154.609375 147.230469 159.816406 150.488281 164.339844 C 153.742188 168.863281 158.523438 170.984375 161.167969 169.082031 C 163.808594 167.179688 163.3125 161.972656 160.054688 157.449219 C 156.800781 152.929688 152.019531 150.804688 149.378906 152.707031 " fill-opacity="1" fill-rule="nonzero"/><path fill="#7f7e7c" d="M 145.519531 170.585938 C 142.878906 172.488281 143.375 177.695312 146.628906 182.21875 C 149.882812 186.742188 154.664062 188.863281 157.308594 186.960938 C 159.949219 185.058594 159.453125 179.851562 156.199219 175.328125 C 152.945312 170.804688 148.164062 168.683594 145.519531 170.585938 " fill-opacity="1" fill-rule="nonzero"/><path fill="#7f7e7c" d="M 165.011719 143.148438 C 161.871094 144.261719 160.871094 149.523438 162.78125 154.898438 C 164.6875 160.273438 168.78125 163.726562 171.921875 162.617188 C 175.0625 161.5 176.0625 156.238281 174.15625 150.863281 C 172.25 145.488281 168.15625 142.03125 165.011719 143.148438 " fill-opacity="1" fill-rule="nonzero"/><path fill="#7f7e7c" d="M 182.308594 150.328125 C 179.167969 151.441406 178.167969 156.703125 180.074219 162.078125 C 181.984375 167.453125 186.074219 170.90625 189.21875 169.792969 C 192.359375 168.675781 193.359375 163.417969 191.449219 158.039062 C 189.542969 152.667969 185.453125 149.210938 182.308594 150.328125 " fill-opacity="1" fill-rule="nonzero"/><path fill="#7f7e7c" d="M 6.429688 192.199219 C 7.453125 191.097656 8.257812 189.660156 8.140625 188.160156 C 8.023438 186.660156 6.703125 185.210938 5.203125 185.378906 C 6.207031 184.730469 7.554688 184.976562 8.617188 185.523438 C 9.679688 186.066406 10.597656 186.875 11.6875 187.367188 C 15.449219 189.082031 18.949219 187.9375 22.214844 185.738281 C 22.777344 185.363281 23.351562 184.976562 23.765625 184.4375 C 24.136719 183.953125 24.363281 183.371094 24.5625 182.789062 C 24.929688 181.710938 25.152344 180.585938 25.097656 179.472656 C 25.058594 178.703125 24.886719 177.941406 24.542969 177.207031 C 22.625 173.140625 17.222656 174.671875 14.0625 172.734375 C 13.082031 172.136719 12.292969 171.269531 11.636719 170.328125 C 10.285156 168.390625 9.273438 166.878906 6.910156 166.140625 C 5.109375 165.574219 3.214844 165.96875 1.363281 165.769531 C 0.871094 165.71875 0.46875 165.660156 0.117188 165.628906 L 0.117188 196.457031 C 0.746094 196.351562 1.363281 196.15625 1.9375 195.859375 C 3.597656 194.996094 5.164062 193.5625 6.429688 192.199219 " fill-opacity="1" fill-rule="nonzero"/><path fill="#7f7e7c" d="M 3.230469 162.617188 C 6.371094 161.5 7.371094 156.238281 5.464844 150.863281 C 4.277344 147.515625 2.242188 144.917969 0.117188 143.699219 L 0.117188 162.40625 C 1.183594 162.867188 2.253906 162.960938 3.230469 162.617188 " fill-opacity="1" fill-rule="nonzero"/><path fill="#7f7e7c" d="M 13.617188 150.328125 C 10.476562 151.441406 9.476562 156.703125 11.382812 162.078125 C 13.292969 167.453125 17.386719 170.90625 20.527344 169.792969 C 23.667969 168.675781 24.667969 163.417969 22.757812 158.039062 C 20.851562 152.667969 16.761719 149.210938 13.617188 150.328125 " fill-opacity="1" fill-rule="nonzero"/><path fill="#7f7e7c" d="M 670.496094 1.078125 C 670.375 1.3125 670.253906 1.546875 670.125 1.757812 C 669.394531 2.988281 668.359375 4.488281 667.960938 5.859375 C 667.238281 8.335938 669.519531 10.582031 669.917969 12.949219 C 670.109375 14.089844 670.054688 15.261719 669.625 16.347656 C 668.644531 18.804688 665.660156 19.921875 666.511719 23.035156 C 666.882812 24.390625 667.859375 25.515625 669 26.335938 C 670.683594 27.539062 672.871094 28.128906 674.882812 27.789062 L 674.882812 1.078125 L 670.496094 1.078125 " fill-opacity="1" fill-rule="nonzero"/><path fill="#7f7e7c" d="M 665.425781 1.078125 L 664.414062 1.078125 C 664.761719 1.113281 665.101562 1.113281 665.425781 1.078125 " fill-opacity="1" fill-rule="nonzero"/><path fill="#7f7e7c" d="M 651.59375 1.917969 C 648.949219 3.820312 649.445312 9.027344 652.703125 13.550781 C 655.957031 18.074219 660.738281 20.195312 663.382812 18.292969 C 666.023438 16.390625 665.527344 11.183594 662.273438 6.660156 C 659.015625 2.140625 654.234375 0.015625 651.59375 1.917969 " fill-opacity="1" fill-rule="nonzero"/><path fill="#7f7e7c" d="M 499.269531 5.859375 C 498.546875 8.335938 500.828125 10.582031 501.226562 12.949219 C 501.417969 14.089844 501.363281 15.261719 500.933594 16.347656 C 499.953125 18.804688 496.972656 19.921875 497.820312 23.035156 C 498.191406 24.390625 499.167969 25.515625 500.308594 26.335938 C 502.523438 27.917969 505.597656 28.441406 508.011719 27.191406 C 509.671875 26.328125 511.238281 24.894531 512.503906 23.53125 C 513.527344 22.429688 514.332031 20.992188 514.214844 19.492188 C 514.097656 17.992188 512.773438 16.542969 511.277344 16.710938 C 512.28125 16.0625 513.628906 16.308594 514.691406 16.855469 C 515.753906 17.402344 516.671875 18.207031 517.757812 18.699219 C 521.523438 20.414062 525.023438 19.269531 528.289062 17.070312 C 528.851562 16.695312 529.421875 16.308594 529.835938 15.769531 C 530.210938 15.285156 530.433594 14.703125 530.636719 14.121094 C 531 13.042969 531.226562 11.917969 531.171875 10.804688 C 531.132812 10.039062 530.960938 9.277344 530.613281 8.539062 C 528.699219 4.472656 523.292969 6.003906 520.132812 4.066406 C 519.15625 3.46875 518.367188 2.601562 517.710938 1.660156 C 517.570312 1.460938 517.433594 1.269531 517.300781 1.078125 L 501.804688 1.078125 C 501.683594 1.3125 501.5625 1.546875 501.433594 1.757812 C 500.703125 2.988281 499.671875 4.488281 499.269531 5.859375 " fill-opacity="1" fill-rule="nonzero"/><path fill="#7f7e7c" d="M 496.738281 1.078125 L 495.722656 1.078125 C 496.070312 1.113281 496.410156 1.113281 496.738281 1.078125 " fill-opacity="1" fill-rule="nonzero"/><path fill="#7f7e7c" d="M 482.902344 1.917969 C 480.261719 3.820312 480.753906 9.027344 484.011719 13.550781 C 487.265625 18.074219 492.046875 20.195312 494.691406 18.292969 C 497.332031 16.390625 496.835938 11.183594 493.582031 6.660156 C 490.324219 2.140625 485.542969 0.015625 482.902344 1.917969 " fill-opacity="1" fill-rule="nonzero"/><path fill="#7f7e7c" d="M 526.601562 1.125 C 526.632812 1.113281 526.664062 1.09375 526.699219 1.078125 L 523.929688 1.078125 C 524.851562 1.386719 525.757812 1.425781 526.601562 1.125 " fill-opacity="1" fill-rule="nonzero"/><path fill="#7f7e7c" d="M 330.578125 5.859375 C 329.855469 8.335938 332.136719 10.582031 332.535156 12.949219 C 332.726562 14.089844 332.675781 15.261719 332.242188 16.347656 C 331.265625 18.804688 328.28125 19.921875 329.128906 23.035156 C 329.5 24.390625 330.476562 25.515625 331.621094 26.335938 C 333.832031 27.917969 336.90625 28.441406 339.320312 27.191406 C 340.980469 26.328125 342.546875 24.894531 343.8125 23.53125 C 344.835938 22.429688 345.640625 20.992188 345.523438 19.492188 C 345.40625 17.992188 344.085938 16.542969 342.585938 16.710938 C 343.589844 16.0625 344.9375 16.308594 346 16.855469 C 347.0625 17.402344 347.980469 18.207031 349.070312 18.699219 C 352.832031 20.414062 356.332031 19.269531 359.597656 17.070312 C 360.160156 16.695312 360.730469 16.308594 361.144531 15.769531 C 361.519531 15.285156 361.742188 14.703125 361.945312 14.121094 C 362.3125 13.042969 362.535156 11.917969 362.480469 10.804688 C 362.441406 10.039062 362.269531 9.277344 361.921875 8.539062 C 360.007812 4.472656 354.605469 6.003906 351.441406 4.066406 C 350.464844 3.46875 349.675781 2.601562 349.019531 1.660156 C 348.878906 1.460938 348.746094 1.269531 348.609375 1.078125 L 333.113281 1.078125 C 332.992188 1.3125 332.871094 1.546875 332.742188 1.757812 C 332.011719 2.988281 330.980469 4.488281 330.578125 5.859375 " fill-opacity="1" fill-rule="nonzero"/><path fill="#7f7e7c" d="M 328.046875 1.078125 L 327.03125 1.078125 C 327.378906 1.113281 327.71875 1.113281 328.046875 1.078125 " fill-opacity="1" fill-rule="nonzero"/><path fill="#7f7e7c" d="M 314.210938 1.917969 C 311.570312 3.820312 312.066406 9.027344 315.320312 13.550781 C 318.574219 18.074219 323.355469 20.195312 326 18.292969 C 328.640625 16.390625 328.144531 11.183594 324.890625 6.660156 C 321.636719 2.140625 316.855469 0.015625 314.210938 1.917969 " fill-opacity="1" fill-rule="nonzero"/><path fill="#7f7e7c" d="M 357.910156 1.125 C 357.941406 1.113281 357.976562 1.09375 358.007812 1.078125 L 355.238281 1.078125 C 356.160156 1.386719 357.066406 1.425781 357.910156 1.125 " fill-opacity="1" fill-rule="nonzero"/><path fill="#7f7e7c" d="M 161.886719 5.859375 C 161.164062 8.335938 163.445312 10.582031 163.84375 12.949219 C 164.035156 14.089844 163.984375 15.261719 163.550781 16.347656 C 162.574219 18.804688 159.589844 19.921875 160.4375 23.035156 C 160.808594 24.390625 161.789062 25.515625 162.929688 26.335938 C 165.140625 27.917969 168.214844 28.441406 170.628906 27.191406 C 172.289062 26.328125 173.855469 24.894531 175.121094 23.53125 C 176.144531 22.429688 176.949219 20.992188 176.832031 19.492188 C 176.714844 17.992188 175.394531 16.542969 173.894531 16.710938 C 174.898438 16.0625 176.246094 16.308594 177.308594 16.855469 C 178.371094 17.402344 179.289062 18.207031 180.378906 18.699219 C 184.140625 20.414062 187.640625 19.269531 190.90625 17.070312 C 191.46875 16.695312 192.039062 16.308594 192.453125 15.769531 C 192.828125 15.285156 193.054688 14.703125 193.253906 14.121094 C 193.621094 13.042969 193.84375 11.917969 193.789062 10.804688 C 193.75 10.039062 193.582031 9.277344 193.230469 8.539062 C 191.316406 4.472656 185.914062 6.003906 182.753906 4.066406 C 181.773438 3.46875 180.984375 2.601562 180.328125 1.660156 C 180.1875 1.460938 180.054688 1.269531 179.917969 1.078125 L 164.421875 1.078125 C 164.300781 1.3125 164.179688 1.546875 164.050781 1.757812 C 163.320312 2.988281 162.289062 4.488281 161.886719 5.859375 " fill-opacity="1" fill-rule="nonzero"/><path fill="#7f7e7c" d="M 159.355469 1.078125 L 158.339844 1.078125 C 158.6875 1.113281 159.027344 1.113281 159.355469 1.078125 " fill-opacity="1" fill-rule="nonzero"/><path fill="#7f7e7c" d="M 145.519531 1.917969 C 142.878906 3.820312 143.375 9.027344 146.628906 13.550781 C 149.882812 18.074219 154.664062 20.195312 157.308594 18.292969 C 159.949219 16.390625 159.453125 11.183594 156.199219 6.660156 C 152.945312 2.140625 148.164062 0.015625 145.519531 1.917969 " fill-opacity="1" fill-rule="nonzero"/><path fill="#7f7e7c" d="M 189.21875 1.125 C 189.253906 1.113281 189.285156 1.09375 189.316406 1.078125 L 186.546875 1.078125 C 187.46875 1.386719 188.378906 1.425781 189.21875 1.125 " fill-opacity="1" fill-rule="nonzero"/><path fill="#7f7e7c" d="M 6.429688 23.53125 C 7.453125 22.429688 8.257812 20.992188 8.140625 19.492188 C 8.023438 17.992188 6.703125 16.542969 5.203125 16.710938 C 6.207031 16.0625 7.554688 16.308594 8.617188 16.855469 C 9.679688 17.402344 10.597656 18.207031 11.6875 18.699219 C 15.449219 20.414062 18.949219 19.269531 22.214844 17.070312 C 22.777344 16.695312 23.351562 16.308594 23.765625 15.769531 C 24.136719 15.285156 24.363281 14.703125 24.5625 14.121094 C 24.929688 13.042969 25.152344 11.917969 25.097656 10.804688 C 25.058594 10.039062 24.886719 9.277344 24.542969 8.539062 C 22.625 4.472656 17.222656 6.003906 14.0625 4.066406 C 13.082031 3.46875 12.292969 2.601562 11.636719 1.660156 C 11.496094 1.460938 11.363281 1.269531 11.226562 1.078125 L 0.117188 1.078125 L 0.117188 27.789062 C 0.746094 27.683594 1.363281 27.488281 1.9375 27.191406 C 3.597656 26.328125 5.164062 24.894531 6.429688 23.53125 " fill-opacity="1" fill-rule="nonzero"/><path fill="#7f7e7c" d="M 20.527344 1.125 C 20.5625 1.113281 20.59375 1.09375 20.628906 1.078125 L 17.855469 1.078125 C 18.777344 1.386719 19.6875 1.425781 20.527344 1.125 " fill-opacity="1" fill-rule="nonzero"/><path fill="#4c4c4c" d="M 595.503906 434.617188 C 595.898438 432.25 598.179688 430.007812 597.457031 427.527344 C 597.058594 426.15625 596.023438 424.65625 595.292969 423.429688 C 594.644531 422.339844 594.117188 420.886719 593.261719 419.945312 C 591.726562 418.261719 591.199219 418.570312 589.292969 418.773438 C 587.4375 418.96875 585.546875 418.574219 583.742188 419.140625 C 581.382812 419.882812 580.371094 421.390625 579.019531 423.332031 C 578.363281 424.273438 577.570312 425.140625 576.59375 425.738281 C 573.433594 427.675781 568.03125 426.144531 566.113281 430.210938 C 565.765625 430.945312 565.597656 431.707031 565.558594 432.472656 C 565.5 433.585938 565.726562 434.710938 566.09375 435.789062 C 566.292969 436.371094 566.515625 436.953125 566.890625 437.4375 C 567.304688 437.976562 567.875 438.363281 568.4375 438.742188 C 571.703125 440.9375 575.203125 442.082031 578.96875 440.367188 C 580.054688 439.875 580.972656 439.070312 582.035156 438.523438 C 583.097656 437.980469 584.449219 437.730469 585.449219 438.378906 C 583.953125 438.214844 582.632812 439.664062 582.511719 441.164062 C 582.398438 442.660156 583.199219 444.097656 584.222656 445.199219 C 585.488281 446.5625 587.058594 448 588.714844 448.859375 C 591.128906 450.113281 594.207031 449.585938 596.417969 448.003906 C 597.558594 447.183594 598.535156 446.0625 598.90625 444.703125 C 599.757812 441.59375 596.773438 440.472656 595.796875 438.019531 C 595.363281 436.933594 595.308594 435.757812 595.503906 434.617188 " fill-opacity="1" fill-rule="nonzero"/><path fill="#4c4c4c" d="M 609.96875 405.707031 C 607.328125 403.808594 602.546875 405.929688 599.289062 410.453125 C 596.03125 414.972656 595.535156 420.179688 598.175781 422.085938 C 600.820312 423.988281 605.601562 421.863281 608.859375 417.339844 C 612.113281 412.816406 612.609375 407.609375 609.96875 405.707031 " fill-opacity="1" fill-rule="nonzero"/><path fill="#4c4c4c" d="M 613.828125 423.585938 C 611.183594 421.6875 606.402344 423.808594 603.144531 428.332031 C 599.890625 432.851562 599.394531 438.058594 602.035156 439.964844 C 604.679688 441.867188 609.460938 439.742188 612.714844 435.21875 C 615.972656 430.695312 616.46875 425.488281 613.828125 423.585938 " fill-opacity="1" fill-rule="nonzero"/><path fill="#4c4c4c" d="M 594.332031 396.148438 C 591.191406 395.035156 587.097656 398.488281 585.1875 403.867188 C 583.28125 409.238281 584.28125 414.503906 587.421875 415.617188 C 590.566406 416.730469 594.65625 413.277344 596.566406 407.902344 C 598.472656 402.523438 597.472656 397.265625 594.332031 396.148438 " fill-opacity="1" fill-rule="nonzero"/><path fill="#4c4c4c" d="M 577.035156 403.328125 C 573.894531 402.214844 569.804688 405.667969 567.894531 411.042969 C 565.988281 416.417969 566.984375 421.679688 570.128906 422.792969 C 573.269531 423.90625 577.363281 420.457031 579.269531 415.078125 C 581.175781 409.703125 580.179688 404.441406 577.035156 403.328125 " fill-opacity="1" fill-rule="nonzero"/><path fill="#4c4c4c" d="M 426.8125 434.617188 C 427.210938 432.25 429.488281 430.007812 428.765625 427.527344 C 428.367188 426.15625 427.332031 424.65625 426.601562 423.429688 C 425.953125 422.339844 425.425781 420.886719 424.570312 419.945312 C 423.035156 418.261719 422.507812 418.570312 420.601562 418.773438 C 418.75 418.96875 416.855469 418.574219 415.054688 419.140625 C 412.691406 419.882812 411.679688 421.390625 410.328125 423.332031 C 409.671875 424.273438 408.878906 425.140625 407.902344 425.738281 C 404.742188 427.675781 399.339844 426.144531 397.421875 430.210938 C 397.074219 430.945312 396.90625 431.707031 396.867188 432.472656 C 396.8125 433.585938 397.035156 434.710938 397.402344 435.789062 C 397.601562 436.371094 397.824219 436.953125 398.199219 437.4375 C 398.613281 437.976562 399.183594 438.363281 399.746094 438.742188 C 403.011719 440.9375 406.511719 442.082031 410.277344 440.367188 C 411.367188 439.875 412.28125 439.070312 413.34375 438.523438 C 414.40625 437.980469 415.757812 437.730469 416.757812 438.378906 C 415.261719 438.214844 413.941406 439.664062 413.820312 441.164062 C 413.707031 442.660156 414.511719 444.097656 415.53125 445.199219 C 416.796875 446.5625 418.367188 448 420.023438 448.859375 C 422.4375 450.113281 425.515625 449.585938 427.726562 448.003906 C 428.867188 447.183594 429.84375 446.0625 430.214844 444.703125 C 431.066406 441.59375 428.082031 440.472656 427.105469 438.019531 C 426.671875 436.933594 426.617188 435.757812 426.8125 434.617188 " fill-opacity="1" fill-rule="nonzero"/><path fill="#4c4c4c" d="M 441.277344 405.707031 C 438.636719 403.808594 433.855469 405.929688 430.597656 410.453125 C 427.339844 414.972656 426.84375 420.179688 429.488281 422.085938 C 432.128906 423.988281 436.910156 421.863281 440.167969 417.339844 C 443.421875 412.816406 443.921875 407.609375 441.277344 405.707031 " fill-opacity="1" fill-rule="nonzero"/><path fill="#4c4c4c" d="M 445.136719 423.585938 C 442.492188 421.6875 437.710938 423.808594 434.457031 428.332031 C 431.199219 432.851562 430.703125 438.058594 433.34375 439.964844 C 435.988281 441.867188 440.769531 439.742188 444.027344 435.21875 C 447.28125 430.695312 447.777344 425.488281 445.136719 423.585938 " fill-opacity="1" fill-rule="nonzero"/><path fill="#4c4c4c" d="M 425.640625 396.148438 C 422.5 395.035156 418.40625 398.488281 416.496094 403.867188 C 414.589844 409.238281 415.589844 414.503906 418.734375 415.617188 C 421.875 416.730469 425.964844 413.277344 427.875 407.902344 C 429.78125 402.523438 428.78125 397.265625 425.640625 396.148438 " fill-opacity="1" fill-rule="nonzero"/><path fill="#4c4c4c" d="M 408.34375 403.328125 C 405.203125 402.214844 401.113281 405.667969 399.203125 411.042969 C 397.296875 416.417969 398.292969 421.679688 401.4375 422.792969 C 404.578125 423.90625 408.671875 420.457031 410.582031 415.078125 C 412.484375 409.703125 411.488281 404.441406 408.34375 403.328125 " fill-opacity="1" fill-rule="nonzero"/><path fill="#4c4c4c" d="M 258.121094 434.617188 C 258.519531 432.25 260.796875 430.007812 260.074219 427.527344 C 259.675781 426.15625 258.640625 424.65625 257.910156 423.429688 C 257.265625 422.339844 256.738281 420.886719 255.878906 419.945312 C 254.34375 418.261719 253.816406 418.570312 251.910156 418.773438 C 250.058594 418.96875 248.164062 418.574219 246.363281 419.140625 C 244 419.882812 242.988281 421.390625 241.636719 423.332031 C 240.980469 424.273438 240.1875 425.140625 239.210938 425.738281 C 236.050781 427.675781 230.648438 426.144531 228.730469 430.210938 C 228.382812 430.945312 228.214844 431.707031 228.175781 432.472656 C 228.121094 433.585938 228.34375 434.710938 228.710938 435.789062 C 228.910156 436.371094 229.132812 436.953125 229.507812 437.4375 C 229.921875 437.976562 230.496094 438.363281 231.054688 438.742188 C 234.320312 440.9375 237.820312 442.082031 241.585938 440.367188 C 242.675781 439.875 243.59375 439.070312 244.652344 438.523438 C 245.714844 437.980469 247.066406 437.730469 248.066406 438.378906 C 246.570312 438.214844 245.25 439.664062 245.132812 441.164062 C 245.015625 442.660156 245.820312 444.097656 246.839844 445.199219 C 248.105469 446.5625 249.675781 448 251.332031 448.859375 C 253.746094 450.113281 256.824219 449.585938 259.035156 448.003906 C 260.175781 447.183594 261.152344 446.0625 261.527344 444.703125 C 262.375 441.59375 259.390625 440.472656 258.414062 438.019531 C 257.980469 436.933594 257.929688 435.757812 258.121094 434.617188 " fill-opacity="1" fill-rule="nonzero"/><path fill="#4c4c4c" d="M 272.585938 405.707031 C 269.945312 403.808594 265.164062 405.929688 261.90625 410.453125 C 258.648438 414.972656 258.15625 420.179688 260.796875 422.085938 C 263.4375 423.988281 268.21875 421.863281 271.476562 417.339844 C 274.730469 412.816406 275.230469 407.609375 272.585938 405.707031 " fill-opacity="1" fill-rule="nonzero"/><path fill="#4c4c4c" d="M 276.445312 423.585938 C 273.800781 421.6875 269.019531 423.808594 265.765625 428.332031 C 262.507812 432.851562 262.011719 438.058594 264.65625 439.964844 C 267.296875 441.867188 272.078125 439.742188 275.335938 435.21875 C 278.589844 430.695312 279.085938 425.488281 276.445312 423.585938 " fill-opacity="1" fill-rule="nonzero"/><path fill="#4c4c4c" d="M 256.949219 396.148438 C 253.808594 395.035156 249.714844 398.488281 247.804688 403.867188 C 245.902344 409.238281 246.898438 414.503906 250.042969 415.617188 C 253.183594 416.730469 257.273438 413.277344 259.183594 407.902344 C 261.089844 402.523438 260.09375 397.265625 256.949219 396.148438 " fill-opacity="1" fill-rule="nonzero"/><path fill="#4c4c4c" d="M 239.652344 403.328125 C 236.511719 402.214844 232.421875 405.667969 230.511719 411.042969 C 228.605469 416.417969 229.605469 421.679688 232.746094 422.792969 C 235.886719 423.90625 239.980469 420.457031 241.890625 415.078125 C 243.792969 409.703125 242.796875 404.441406 239.652344 403.328125 " fill-opacity="1" fill-rule="nonzero"/><path fill="#4c4c4c" d="M 89.429688 434.617188 C 89.828125 432.25 92.105469 430.007812 91.386719 427.527344 C 90.984375 426.15625 89.953125 424.65625 89.222656 423.429688 C 88.574219 422.339844 88.046875 420.886719 87.1875 419.945312 C 85.652344 418.261719 85.125 418.570312 83.21875 418.773438 C 81.367188 418.96875 79.472656 418.574219 77.671875 419.140625 C 75.308594 419.882812 74.296875 421.390625 72.945312 423.332031 C 72.289062 424.273438 71.496094 425.140625 70.519531 425.738281 C 67.359375 427.675781 61.957031 426.144531 60.039062 430.210938 C 59.695312 430.945312 59.523438 431.707031 59.484375 432.472656 C 59.429688 433.585938 59.648438 434.710938 60.019531 435.789062 C 60.21875 436.371094 60.445312 436.953125 60.816406 437.4375 C 61.230469 437.976562 61.804688 438.363281 62.363281 438.742188 C 65.628906 440.9375 69.132812 442.082031 72.894531 440.367188 C 73.984375 439.875 74.902344 439.070312 75.964844 438.523438 C 77.023438 437.980469 78.375 437.730469 79.375 438.378906 C 77.878906 438.214844 76.558594 439.664062 76.441406 441.164062 C 76.324219 442.660156 77.128906 444.097656 78.152344 445.199219 C 79.414062 446.5625 80.984375 448 82.640625 448.859375 C 85.054688 450.113281 88.132812 449.585938 90.34375 448.003906 C 91.484375 447.183594 92.464844 446.0625 92.835938 444.703125 C 93.683594 441.59375 90.699219 440.472656 89.722656 438.019531 C 89.289062 436.933594 89.238281 435.757812 89.429688 434.617188 " fill-opacity="1" fill-rule="nonzero"/><path fill="#4c4c4c" d="M 103.894531 405.707031 C 101.253906 403.808594 96.472656 405.929688 93.21875 410.453125 C 89.960938 414.972656 89.464844 420.179688 92.105469 422.085938 C 94.75 423.988281 99.53125 421.863281 102.785156 417.339844 C 106.039062 412.816406 106.539062 407.609375 103.894531 405.707031 " fill-opacity="1" fill-rule="nonzero"/><path fill="#4c4c4c" d="M 107.753906 423.585938 C 105.109375 421.6875 100.328125 423.808594 97.074219 428.332031 C 93.816406 432.851562 93.324219 438.058594 95.964844 439.964844 C 98.605469 441.867188 103.386719 439.742188 106.644531 435.21875 C 109.898438 430.695312 110.394531 425.488281 107.753906 423.585938 " fill-opacity="1" fill-rule="nonzero"/><path fill="#4c4c4c" d="M 88.257812 396.148438 C 85.117188 395.035156 81.023438 398.488281 79.117188 403.867188 C 77.210938 409.238281 78.207031 414.503906 81.351562 415.617188 C 84.492188 416.730469 88.582031 413.277344 90.492188 407.902344 C 92.398438 402.523438 91.402344 397.265625 88.257812 396.148438 " fill-opacity="1" fill-rule="nonzero"/><path fill="#4c4c4c" d="M 70.964844 403.328125 C 67.820312 402.214844 63.730469 405.667969 61.820312 411.042969 C 59.914062 416.417969 60.914062 421.679688 64.054688 422.792969 C 67.195312 423.90625 71.289062 420.457031 73.199219 415.078125 C 75.105469 409.703125 74.105469 404.441406 70.964844 403.328125 " fill-opacity="1" fill-rule="nonzero"/><path fill="#4c4c4c" d="M 595.503906 265.949219 C 595.898438 263.585938 598.179688 261.339844 597.457031 258.859375 C 597.058594 257.488281 596.023438 255.988281 595.292969 254.761719 C 594.644531 253.671875 594.117188 252.21875 593.261719 251.277344 C 591.726562 249.59375 591.199219 249.902344 589.292969 250.105469 C 587.4375 250.300781 585.546875 249.90625 583.742188 250.472656 C 581.382812 251.214844 580.371094 252.722656 579.019531 254.664062 C 578.363281 255.605469 577.570312 256.472656 576.59375 257.070312 C 573.433594 259.007812 568.03125 257.476562 566.113281 261.542969 C 565.765625 262.277344 565.597656 263.039062 565.558594 263.804688 C 565.5 264.917969 565.726562 266.042969 566.09375 267.121094 C 566.292969 267.703125 566.515625 268.285156 566.890625 268.769531 C 567.304688 269.308594 567.875 269.695312 568.4375 270.074219 C 571.703125 272.269531 575.203125 273.414062 578.96875 271.703125 C 580.054688 271.207031 580.972656 270.402344 582.035156 269.855469 C 583.097656 269.3125 584.449219 269.0625 585.449219 269.710938 C 583.953125 269.546875 582.632812 270.996094 582.511719 272.496094 C 582.398438 273.996094 583.199219 275.429688 584.222656 276.53125 C 585.488281 277.894531 587.058594 279.332031 588.714844 280.191406 C 591.128906 281.445312 594.207031 280.917969 596.417969 279.335938 C 597.558594 278.515625 598.535156 277.394531 598.90625 276.035156 C 599.757812 272.925781 596.773438 271.804688 595.796875 269.351562 C 595.363281 268.265625 595.308594 267.09375 595.503906 265.949219 " fill-opacity="1" fill-rule="nonzero"/><path fill="#4c4c4c" d="M 609.96875 237.039062 C 607.328125 235.140625 602.546875 237.261719 599.289062 241.785156 C 596.03125 246.304688 595.535156 251.515625 598.175781 253.417969 C 600.820312 255.320312 605.601562 253.195312 608.859375 248.671875 C 612.113281 244.152344 612.609375 238.941406 609.96875 237.039062 " fill-opacity="1" fill-rule="nonzero"/><path fill="#4c4c4c" d="M 613.828125 254.917969 C 611.183594 253.019531 606.402344 255.140625 603.144531 259.664062 C 599.890625 264.183594 599.394531 269.394531 602.035156 271.296875 C 604.679688 273.199219 609.460938 271.074219 612.714844 266.550781 C 615.972656 262.03125 616.46875 256.820312 613.828125 254.917969 " fill-opacity="1" fill-rule="nonzero"/><path fill="#4c4c4c" d="M 594.332031 227.480469 C 591.191406 226.367188 587.097656 229.820312 585.1875 235.199219 C 583.28125 240.570312 584.28125 245.835938 587.421875 246.949219 C 590.566406 248.0625 594.65625 244.609375 596.566406 239.234375 C 598.472656 233.855469 597.472656 228.597656 594.332031 227.480469 " fill-opacity="1" fill-rule="nonzero"/><path fill="#4c4c4c" d="M 577.035156 234.660156 C 573.894531 233.546875 569.804688 237 567.894531 242.375 C 565.988281 247.75 566.984375 253.011719 570.128906 254.125 C 573.269531 255.242188 577.363281 251.789062 579.269531 246.410156 C 581.175781 241.035156 580.179688 235.773438 577.035156 234.660156 " fill-opacity="1" fill-rule="nonzero"/><path fill="#4c4c4c" d="M 426.8125 265.949219 C 427.210938 263.585938 429.488281 261.339844 428.765625 258.859375 C 428.367188 257.488281 427.332031 255.988281 426.601562 254.761719 C 425.953125 253.671875 425.425781 252.21875 424.570312 251.277344 C 423.035156 249.59375 422.507812 249.902344 420.601562 250.105469 C 418.75 250.300781 416.855469 249.90625 415.054688 250.472656 C 412.691406 251.214844 411.679688 252.722656 410.328125 254.664062 C 409.671875 255.605469 408.878906 256.472656 407.902344 257.070312 C 404.742188 259.007812 399.339844 257.476562 397.421875 261.542969 C 397.074219 262.277344 396.90625 263.039062 396.867188 263.804688 C 396.8125 264.917969 397.035156 266.042969 397.402344 267.121094 C 397.601562 267.703125 397.824219 268.285156 398.199219 268.769531 C 398.613281 269.308594 399.183594 269.695312 399.746094 270.074219 C 403.011719 272.269531 406.511719 273.414062 410.277344 271.703125 C 411.367188 271.207031 412.28125 270.402344 413.34375 269.855469 C 414.40625 269.3125 415.757812 269.0625 416.757812 269.710938 C 415.261719 269.546875 413.941406 270.996094 413.820312 272.496094 C 413.707031 273.996094 414.511719 275.429688 415.53125 276.53125 C 416.796875 277.894531 418.367188 279.332031 420.023438 280.191406 C 422.4375 281.445312 425.515625 280.917969 427.726562 279.335938 C 428.867188 278.515625 429.84375 277.394531 430.214844 276.035156 C 431.066406 272.925781 428.082031 271.804688 427.105469 269.351562 C 426.671875 268.265625 426.617188 267.09375 426.8125 265.949219 " fill-opacity="1" fill-rule="nonzero"/><path fill="#4c4c4c" d="M 441.277344 237.039062 C 438.636719 235.140625 433.855469 237.261719 430.597656 241.785156 C 427.339844 246.304688 426.84375 251.515625 429.488281 253.417969 C 432.128906 255.320312 436.910156 253.195312 440.167969 248.671875 C 443.421875 244.152344 443.921875 238.941406 441.277344 237.039062 " fill-opacity="1" fill-rule="nonzero"/><path fill="#4c4c4c" d="M 445.136719 254.917969 C 442.492188 253.019531 437.710938 255.140625 434.457031 259.664062 C 431.199219 264.183594 430.703125 269.394531 433.34375 271.296875 C 435.988281 273.199219 440.769531 271.074219 444.027344 266.550781 C 447.28125 262.03125 447.777344 256.820312 445.136719 254.917969 " fill-opacity="1" fill-rule="nonzero"/><path fill="#4c4c4c" d="M 425.640625 227.480469 C 422.5 226.367188 418.40625 229.820312 416.496094 235.199219 C 414.589844 240.570312 415.589844 245.835938 418.734375 246.949219 C 421.875 248.0625 425.964844 244.609375 427.875 239.234375 C 429.78125 233.855469 428.78125 228.597656 425.640625 227.480469 " fill-opacity="1" fill-rule="nonzero"/><path fill="#4c4c4c" d="M 408.34375 234.660156 C 405.203125 233.546875 401.113281 237 399.203125 242.375 C 397.296875 247.75 398.292969 253.011719 401.4375 254.125 C 404.578125 255.242188 408.671875 251.789062 410.582031 246.410156 C 412.484375 241.035156 411.488281 235.773438 408.34375 234.660156 " fill-opacity="1" fill-rule="nonzero"/><path fill="#4c4c4c" d="M 258.121094 265.949219 C 258.519531 263.585938 260.796875 261.339844 260.074219 258.859375 C 259.675781 257.488281 258.640625 255.988281 257.910156 254.761719 C 257.265625 253.671875 256.738281 252.21875 255.878906 251.277344 C 254.34375 249.59375 253.816406 249.902344 251.910156 250.105469 C 250.058594 250.300781 248.164062 249.90625 246.363281 250.472656 C 244 251.214844 242.988281 252.722656 241.636719 254.664062 C 240.980469 255.605469 240.1875 256.472656 239.210938 257.070312 C 236.050781 259.007812 230.648438 257.476562 228.730469 261.542969 C 228.382812 262.277344 228.214844 263.039062 228.175781 263.804688 C 228.121094 264.917969 228.34375 266.042969 228.710938 267.121094 C 228.910156 267.703125 229.132812 268.285156 229.507812 268.769531 C 229.921875 269.308594 230.496094 269.695312 231.054688 270.074219 C 234.320312 272.269531 237.820312 273.414062 241.585938 271.703125 C 242.675781 271.207031 243.59375 270.402344 244.652344 269.855469 C 245.714844 269.3125 247.066406 269.0625 248.066406 269.710938 C 246.570312 269.546875 245.25 270.996094 245.132812 272.496094 C 245.015625 273.996094 245.820312 275.429688 246.839844 276.53125 C 248.105469 277.894531 249.675781 279.332031 251.332031 280.191406 C 253.746094 281.445312 256.824219 280.917969 259.035156 279.335938 C 260.175781 278.515625 261.152344 277.394531 261.527344 276.035156 C 262.375 272.925781 259.390625 271.804688 258.414062 269.351562 C 257.980469 268.265625 257.929688 267.09375 258.121094 265.949219 " fill-opacity="1" fill-rule="nonzero"/><path fill="#4c4c4c" d="M 272.585938 237.039062 C 269.945312 235.140625 265.164062 237.261719 261.90625 241.785156 C 258.648438 246.304688 258.15625 251.515625 260.796875 253.417969 C 263.4375 255.320312 268.21875 253.195312 271.476562 248.671875 C 274.730469 244.152344 275.230469 238.941406 272.585938 237.039062 " fill-opacity="1" fill-rule="nonzero"/><path fill="#4c4c4c" d="M 276.445312 254.917969 C 273.800781 253.019531 269.019531 255.140625 265.765625 259.664062 C 262.507812 264.183594 262.011719 269.394531 264.65625 271.296875 C 267.296875 273.199219 272.078125 271.074219 275.335938 266.550781 C 278.589844 262.03125 279.085938 256.820312 276.445312 254.917969 " fill-opacity="1" fill-rule="nonzero"/><path fill="#4c4c4c" d="M 256.949219 227.480469 C 253.808594 226.367188 249.714844 229.820312 247.804688 235.199219 C 245.902344 240.570312 246.898438 245.835938 250.042969 246.949219 C 253.183594 248.0625 257.273438 244.609375 259.183594 239.234375 C 261.089844 233.855469 260.09375 228.597656 256.949219 227.480469 " fill-opacity="1" fill-rule="nonzero"/><path fill="#4c4c4c" d="M 239.652344 234.660156 C 236.511719 233.546875 232.421875 237 230.511719 242.375 C 228.605469 247.75 229.605469 253.011719 232.746094 254.125 C 235.886719 255.242188 239.980469 251.789062 241.890625 246.410156 C 243.792969 241.035156 242.796875 235.773438 239.652344 234.660156 " fill-opacity="1" fill-rule="nonzero"/><path fill="#4c4c4c" d="M 89.429688 265.949219 C 89.828125 263.585938 92.105469 261.339844 91.386719 258.859375 C 90.984375 257.488281 89.953125 255.988281 89.222656 254.761719 C 88.574219 253.671875 88.046875 252.21875 87.1875 251.277344 C 85.652344 249.59375 85.125 249.902344 83.21875 250.105469 C 81.367188 250.300781 79.472656 249.90625 77.671875 250.472656 C 75.308594 251.214844 74.296875 252.722656 72.945312 254.664062 C 72.289062 255.605469 71.496094 256.472656 70.519531 257.070312 C 67.359375 259.007812 61.957031 257.476562 60.039062 261.542969 C 59.695312 262.277344 59.523438 263.039062 59.484375 263.804688 C 59.429688 264.917969 59.648438 266.042969 60.019531 267.121094 C 60.21875 267.703125 60.445312 268.285156 60.816406 268.769531 C 61.230469 269.308594 61.804688 269.695312 62.363281 270.074219 C 65.628906 272.269531 69.132812 273.414062 72.894531 271.703125 C 73.984375 271.207031 74.902344 270.402344 75.964844 269.855469 C 77.023438 269.3125 78.375 269.0625 79.375 269.710938 C 77.878906 269.546875 76.558594 270.996094 76.441406 272.496094 C 76.324219 273.996094 77.128906 275.429688 78.152344 276.53125 C 79.414062 277.894531 80.984375 279.332031 82.640625 280.191406 C 85.054688 281.445312 88.132812 280.917969 90.34375 279.335938 C 91.484375 278.515625 92.464844 277.394531 92.835938 276.035156 C 93.683594 272.925781 90.699219 271.804688 89.722656 269.351562 C 89.289062 268.265625 89.238281 267.09375 89.429688 265.949219 " fill-opacity="1" fill-rule="nonzero"/><path fill="#4c4c4c" d="M 103.894531 237.039062 C 101.253906 235.140625 96.472656 237.261719 93.21875 241.785156 C 89.960938 246.304688 89.464844 251.515625 92.105469 253.417969 C 94.75 255.320312 99.53125 253.195312 102.785156 248.671875 C 106.039062 244.152344 106.539062 238.941406 103.894531 237.039062 " fill-opacity="1" fill-rule="nonzero"/><path fill="#4c4c4c" d="M 107.753906 254.917969 C 105.109375 253.019531 100.328125 255.140625 97.074219 259.664062 C 93.816406 264.183594 93.324219 269.394531 95.964844 271.296875 C 98.605469 273.199219 103.386719 271.074219 106.644531 266.550781 C 109.898438 262.03125 110.394531 256.820312 107.753906 254.917969 " fill-opacity="1" fill-rule="nonzero"/><path fill="#4c4c4c" d="M 88.257812 227.480469 C 85.117188 226.367188 81.023438 229.820312 79.117188 235.199219 C 77.210938 240.570312 78.207031 245.835938 81.351562 246.949219 C 84.492188 248.0625 88.582031 244.609375 90.492188 239.234375 C 92.398438 233.855469 91.402344 228.597656 88.257812 227.480469 " fill-opacity="1" fill-rule="nonzero"/><path fill="#4c4c4c" d="M 70.964844 234.660156 C 67.820312 233.546875 63.730469 237 61.820312 242.375 C 59.914062 247.75 60.914062 253.011719 64.054688 254.125 C 67.195312 255.242188 71.289062 251.789062 73.199219 246.410156 C 75.105469 241.035156 74.105469 235.773438 70.964844 234.660156 " fill-opacity="1" fill-rule="nonzero"/><path fill="#4c4c4c" d="M 595.503906 97.285156 C 595.898438 94.917969 598.179688 92.671875 597.457031 90.191406 C 597.058594 88.820312 596.023438 87.320312 595.292969 86.09375 C 594.644531 85.003906 594.117188 83.550781 593.261719 82.609375 C 591.726562 80.925781 591.199219 81.234375 589.292969 81.4375 C 587.4375 81.632812 585.546875 81.238281 583.742188 81.804688 C 581.382812 82.546875 580.371094 84.054688 579.019531 85.996094 C 578.363281 86.9375 577.570312 87.804688 576.59375 88.402344 C 573.433594 90.339844 568.03125 88.808594 566.113281 92.875 C 565.765625 93.609375 565.597656 94.371094 565.558594 95.136719 C 565.5 96.25 565.726562 97.375 566.09375 98.453125 C 566.292969 99.035156 566.515625 99.617188 566.890625 100.101562 C 567.304688 100.640625 567.875 101.027344 568.4375 101.40625 C 571.703125 103.601562 575.203125 104.746094 578.96875 103.035156 C 580.054688 102.539062 580.972656 101.734375 582.035156 101.1875 C 583.097656 100.644531 584.449219 100.394531 585.449219 101.042969 C 583.953125 100.878906 582.632812 102.328125 582.511719 103.828125 C 582.398438 105.328125 583.199219 106.761719 584.222656 107.863281 C 585.488281 109.226562 587.058594 110.664062 588.714844 111.523438 C 591.128906 112.777344 594.207031 112.25 596.417969 110.667969 C 597.558594 109.847656 598.535156 108.726562 598.90625 107.367188 C 599.757812 104.257812 596.773438 103.136719 595.796875 100.683594 C 595.363281 99.601562 595.308594 98.425781 595.503906 97.285156 " fill-opacity="1" fill-rule="nonzero"/><path fill="#4c4c4c" d="M 609.96875 68.371094 C 607.328125 66.46875 602.546875 68.59375 599.289062 73.117188 C 596.03125 77.640625 595.535156 82.847656 598.175781 84.75 C 600.820312 86.652344 605.601562 84.527344 608.859375 80.003906 C 612.113281 75.484375 612.609375 70.273438 609.96875 68.371094 " fill-opacity="1" fill-rule="nonzero"/><path fill="#4c4c4c" d="M 613.828125 86.25 C 611.183594 84.351562 606.402344 86.472656 603.144531 90.996094 C 599.890625 95.515625 599.394531 100.726562 602.035156 102.628906 C 604.679688 104.53125 609.460938 102.40625 612.714844 97.882812 C 615.972656 93.363281 616.46875 88.152344 613.828125 86.25 " fill-opacity="1" fill-rule="nonzero"/><path fill="#4c4c4c" d="M 594.332031 58.8125 C 591.191406 57.699219 587.097656 61.152344 585.1875 66.53125 C 583.28125 71.902344 584.28125 77.167969 587.421875 78.28125 C 590.566406 79.394531 594.65625 75.941406 596.566406 70.566406 C 598.472656 65.1875 597.472656 59.929688 594.332031 58.8125 " fill-opacity="1" fill-rule="nonzero"/><path fill="#4c4c4c" d="M 577.035156 65.992188 C 573.894531 64.878906 569.804688 68.332031 567.894531 73.707031 C 565.988281 79.082031 566.984375 84.34375 570.128906 85.457031 C 573.269531 86.574219 577.363281 83.121094 579.269531 77.746094 C 581.175781 72.367188 580.179688 67.109375 577.035156 65.992188 " fill-opacity="1" fill-rule="nonzero"/><path fill="#4c4c4c" d="M 426.8125 97.285156 C 427.210938 94.917969 429.488281 92.671875 428.765625 90.191406 C 428.367188 88.820312 427.332031 87.320312 426.601562 86.09375 C 425.953125 85.003906 425.425781 83.550781 424.570312 82.609375 C 423.035156 80.925781 422.507812 81.234375 420.601562 81.4375 C 418.75 81.632812 416.855469 81.238281 415.054688 81.804688 C 412.691406 82.546875 411.679688 84.054688 410.328125 85.996094 C 409.671875 86.9375 408.878906 87.804688 407.902344 88.402344 C 404.742188 90.339844 399.339844 88.808594 397.421875 92.875 C 397.074219 93.609375 396.90625 94.371094 396.867188 95.136719 C 396.8125 96.25 397.035156 97.375 397.402344 98.453125 C 397.601562 99.035156 397.824219 99.617188 398.199219 100.101562 C 398.613281 100.640625 399.183594 101.027344 399.746094 101.40625 C 403.011719 103.601562 406.511719 104.746094 410.277344 103.035156 C 411.367188 102.539062 412.28125 101.734375 413.34375 101.1875 C 414.40625 100.644531 415.757812 100.394531 416.757812 101.042969 C 415.261719 100.878906 413.941406 102.328125 413.820312 103.828125 C 413.707031 105.328125 414.511719 106.761719 415.53125 107.863281 C 416.796875 109.226562 418.367188 110.664062 420.023438 111.523438 C 422.4375 112.777344 425.515625 112.25 427.726562 110.667969 C 428.867188 109.847656 429.84375 108.726562 430.214844 107.367188 C 431.066406 104.257812 428.082031 103.136719 427.105469 100.683594 C 426.671875 99.601562 426.617188 98.425781 426.8125 97.285156 " fill-opacity="1" fill-rule="nonzero"/><path fill="#4c4c4c" d="M 441.277344 68.371094 C 438.636719 66.46875 433.855469 68.59375 430.597656 73.117188 C 427.339844 77.640625 426.84375 82.847656 429.488281 84.75 C 432.128906 86.652344 436.910156 84.527344 440.167969 80.003906 C 443.421875 75.484375 443.921875 70.273438 441.277344 68.371094 " fill-opacity="1" fill-rule="nonzero"/><path fill="#4c4c4c" d="M 445.136719 86.25 C 442.492188 84.351562 437.710938 86.472656 434.457031 90.996094 C 431.199219 95.515625 430.703125 100.726562 433.34375 102.628906 C 435.988281 104.53125 440.769531 102.40625 444.027344 97.882812 C 447.28125 93.363281 447.777344 88.152344 445.136719 86.25 " fill-opacity="1" fill-rule="nonzero"/><path fill="#4c4c4c" d="M 425.640625 58.8125 C 422.5 57.699219 418.40625 61.152344 416.496094 66.53125 C 414.589844 71.902344 415.589844 77.167969 418.734375 78.28125 C 421.875 79.394531 425.964844 75.941406 427.875 70.566406 C 429.78125 65.1875 428.78125 59.929688 425.640625 58.8125 " fill-opacity="1" fill-rule="nonzero"/><path fill="#4c4c4c" d="M 408.34375 65.992188 C 405.203125 64.878906 401.113281 68.332031 399.203125 73.707031 C 397.296875 79.082031 398.292969 84.34375 401.4375 85.457031 C 404.578125 86.574219 408.671875 83.121094 410.582031 77.746094 C 412.484375 72.367188 411.488281 67.109375 408.34375 65.992188 " fill-opacity="1" fill-rule="nonzero"/><path fill="#4c4c4c" d="M 258.121094 97.285156 C 258.519531 94.917969 260.796875 92.671875 260.074219 90.191406 C 259.675781 88.820312 258.640625 87.320312 257.910156 86.09375 C 257.265625 85.003906 256.738281 83.550781 255.878906 82.609375 C 254.34375 80.925781 253.816406 81.234375 251.910156 81.4375 C 250.058594 81.632812 248.164062 81.238281 246.363281 81.804688 C 244 82.546875 242.988281 84.054688 241.636719 85.996094 C 240.980469 86.9375 240.1875 87.804688 239.210938 88.402344 C 236.050781 90.339844 230.648438 88.808594 228.730469 92.875 C 228.382812 93.609375 228.214844 94.371094 228.175781 95.136719 C 228.121094 96.25 228.34375 97.375 228.710938 98.453125 C 228.910156 99.035156 229.132812 99.617188 229.507812 100.101562 C 229.921875 100.640625 230.496094 101.027344 231.054688 101.40625 C 234.320312 103.601562 237.820312 104.746094 241.585938 103.035156 C 242.675781 102.539062 243.59375 101.734375 244.652344 101.1875 C 245.714844 100.644531 247.066406 100.394531 248.066406 101.042969 C 246.570312 100.878906 245.25 102.328125 245.132812 103.828125 C 245.015625 105.328125 245.820312 106.761719 246.839844 107.863281 C 248.105469 109.226562 249.675781 110.664062 251.332031 111.523438 C 253.746094 112.777344 256.824219 112.25 259.035156 110.667969 C 260.175781 109.847656 261.152344 108.726562 261.527344 107.367188 C 262.375 104.257812 259.390625 103.136719 258.414062 100.683594 C 257.980469 99.601562 257.929688 98.425781 258.121094 97.285156 " fill-opacity="1" fill-rule="nonzero"/><path fill="#4c4c4c" d="M 272.585938 68.371094 C 269.945312 66.46875 265.164062 68.59375 261.90625 73.117188 C 258.648438 77.640625 258.15625 82.847656 260.796875 84.75 C 263.4375 86.652344 268.21875 84.527344 271.476562 80.003906 C 274.730469 75.484375 275.230469 70.273438 272.585938 68.371094 " fill-opacity="1" fill-rule="nonzero"/><path fill="#4c4c4c" d="M 276.445312 86.25 C 273.800781 84.351562 269.019531 86.472656 265.765625 90.996094 C 262.507812 95.515625 262.011719 100.726562 264.65625 102.628906 C 267.296875 104.53125 272.078125 102.40625 275.335938 97.882812 C 278.589844 93.363281 279.085938 88.152344 276.445312 86.25 " fill-opacity="1" fill-rule="nonzero"/><path fill="#4c4c4c" d="M 256.949219 58.8125 C 253.808594 57.699219 249.714844 61.152344 247.804688 66.53125 C 245.902344 71.902344 246.898438 77.167969 250.042969 78.28125 C 253.183594 79.394531 257.273438 75.941406 259.183594 70.566406 C 261.089844 65.1875 260.09375 59.929688 256.949219 58.8125 " fill-opacity="1" fill-rule="nonzero"/><path fill="#4c4c4c" d="M 239.652344 65.992188 C 236.511719 64.878906 232.421875 68.332031 230.511719 73.707031 C 228.605469 79.082031 229.605469 84.34375 232.746094 85.457031 C 235.886719 86.574219 239.980469 83.121094 241.890625 77.746094 C 243.792969 72.367188 242.796875 67.109375 239.652344 65.992188 " fill-opacity="1" fill-rule="nonzero"/><path fill="#4c4c4c" d="M 89.429688 97.285156 C 89.828125 94.917969 92.105469 92.671875 91.386719 90.191406 C 90.984375 88.820312 89.953125 87.320312 89.222656 86.09375 C 88.574219 85.003906 88.046875 83.550781 87.1875 82.609375 C 85.652344 80.925781 85.125 81.234375 83.21875 81.4375 C 81.367188 81.632812 79.472656 81.238281 77.671875 81.804688 C 75.308594 82.546875 74.296875 84.054688 72.945312 85.996094 C 72.289062 86.9375 71.496094 87.804688 70.519531 88.402344 C 67.359375 90.339844 61.957031 88.808594 60.039062 92.875 C 59.695312 93.609375 59.523438 94.371094 59.484375 95.136719 C 59.429688 96.25 59.648438 97.375 60.019531 98.453125 C 60.21875 99.035156 60.445312 99.617188 60.816406 100.101562 C 61.230469 100.640625 61.804688 101.027344 62.363281 101.40625 C 65.628906 103.601562 69.132812 104.746094 72.894531 103.035156 C 73.984375 102.539062 74.902344 101.734375 75.964844 101.1875 C 77.023438 100.644531 78.375 100.394531 79.375 101.042969 C 77.878906 100.878906 76.558594 102.328125 76.441406 103.828125 C 76.324219 105.328125 77.128906 106.761719 78.152344 107.863281 C 79.414062 109.226562 80.984375 110.664062 82.640625 111.523438 C 85.054688 112.777344 88.132812 112.25 90.34375 110.667969 C 91.484375 109.847656 92.464844 108.726562 92.835938 107.367188 C 93.683594 104.257812 90.699219 103.136719 89.722656 100.683594 C 89.289062 99.601562 89.238281 98.425781 89.429688 97.285156 " fill-opacity="1" fill-rule="nonzero"/><path fill="#4c4c4c" d="M 103.894531 68.371094 C 101.253906 66.46875 96.472656 68.59375 93.21875 73.117188 C 89.960938 77.640625 89.464844 82.847656 92.105469 84.75 C 94.75 86.652344 99.53125 84.527344 102.785156 80.003906 C 106.039062 75.484375 106.539062 70.273438 103.894531 68.371094 " fill-opacity="1" fill-rule="nonzero"/><path fill="#4c4c4c" d="M 107.753906 86.25 C 105.109375 84.351562 100.328125 86.472656 97.074219 90.996094 C 93.816406 95.515625 93.324219 100.726562 95.964844 102.628906 C 98.605469 104.53125 103.386719 102.40625 106.644531 97.882812 C 109.898438 93.363281 110.394531 88.152344 107.753906 86.25 " fill-opacity="1" fill-rule="nonzero"/><path fill="#4c4c4c" d="M 88.257812 58.8125 C 85.117188 57.699219 81.023438 61.152344 79.117188 66.53125 C 77.210938 71.902344 78.207031 77.167969 81.351562 78.28125 C 84.492188 79.394531 88.582031 75.941406 90.492188 70.566406 C 92.398438 65.1875 91.402344 59.929688 88.257812 58.8125 " fill-opacity="1" fill-rule="nonzero"/><path fill="#4c4c4c" d="M 70.964844 65.992188 C 67.820312 64.878906 63.730469 68.332031 61.820312 73.707031 C 59.914062 79.082031 60.914062 84.34375 64.054688 85.457031 C 67.195312 86.574219 71.289062 83.121094 73.199219 77.746094 C 75.105469 72.367188 74.105469 67.109375 70.964844 65.992188 " fill-opacity="1" fill-rule="nonzero"/></g></g></g></svg>