<svg xmlns="http://www.w3.org/2000/svg" xmlns:xlink="http://www.w3.org/1999/xlink" width="900" zoomAndPan="magnify" viewBox="0 0 675 449.999984" height="600" preserveAspectRatio="xMidYMid meet" version="1.0"><defs><filter x="0%" y="0%" width="100%" height="100%" id="14771bd3ad"><feColorMatrix values="0 0 0 0 1 0 0 0 0 1 0 0 0 0 1 0 0 0 1 0" color-interpolation-filters="sRGB"/></filter><mask id="cc46347785"><g filter="url(#14771bd3ad)"><rect x="-67.5" width="810" fill="#000000" y="-44.999998" height="539.99998" fill-opacity="0.41"/></g></mask><clipPath id="a1d6614c8b"><rect x="0" width="675" y="0" height="450"/></clipPath></defs><g mask="url(#cc46347785)"><g transform="matrix(1, 0, 0, 1, 0, 0)"><g clip-path="url(#a1d6614c8b)"><path fill="#f8cbc6" d="M 672.15625 335.65625 C 671.300781 336.597656 670.773438 338.054688 670.125 339.140625 C 669.394531 340.371094 668.359375 341.871094 667.960938 343.242188 C 667.238281 345.71875 669.519531 347.964844 669.917969 350.332031 C 670.109375 351.472656 670.054688 352.648438 669.625 353.734375 C 668.644531 356.1875 665.660156 357.308594 666.511719 360.421875 C 666.882812 361.777344 667.859375 362.902344 669 363.71875 C 670.683594 364.925781 672.871094 365.515625 674.882812 365.175781 L 674.882812 334.34375 C 673.878906 334.257812 673.296875 334.40625 672.15625 335.65625 " fill-opacity="1" fill-rule="nonzero"/><path fill="#f8cbc6" d="M 655.449219 321.417969 C 652.808594 323.320312 653.304688 328.53125 656.5625 333.054688 C 659.816406 337.574219 664.597656 339.699219 667.242188 337.796875 C 669.882812 335.894531 669.386719 330.6875 666.128906 326.164062 C 662.875 321.640625 658.09375 319.519531 655.449219 321.417969 " fill-opacity="1" fill-rule="nonzero"/><path fill="#f8cbc6" d="M 651.59375 339.300781 C 648.949219 341.203125 649.445312 346.410156 652.703125 350.933594 C 655.957031 355.457031 660.738281 357.582031 663.382812 355.679688 C 666.023438 353.777344 665.527344 348.566406 662.273438 344.042969 C 659.015625 339.519531 654.234375 337.398438 651.59375 339.300781 " fill-opacity="1" fill-rule="nonzero"/><path fill="#f8cbc6" d="M 671.085938 311.859375 C 667.945312 312.972656 666.945312 318.234375 668.855469 323.613281 C 670.167969 327.316406 672.519531 330.105469 674.882812 331.121094 L 674.882812 312.410156 C 673.59375 311.671875 672.273438 311.4375 671.085938 311.859375 " fill-opacity="1" fill-rule="nonzero"/><path fill="#f8cbc6" d="M 520.132812 341.449219 C 519.15625 340.851562 518.367188 339.984375 517.710938 339.042969 C 516.355469 337.105469 515.34375 335.59375 512.984375 334.851562 C 511.179688 334.285156 509.289062 334.683594 507.433594 334.484375 C 505.53125 334.28125 505.003906 333.972656 503.464844 335.65625 C 502.609375 336.597656 502.082031 338.054688 501.433594 339.140625 C 500.703125 340.371094 499.671875 341.871094 499.269531 343.242188 C 498.546875 345.71875 500.828125 347.964844 501.226562 350.332031 C 501.417969 351.472656 501.363281 352.648438 500.933594 353.734375 C 499.953125 356.1875 496.972656 357.308594 497.820312 360.421875 C 498.191406 361.777344 499.167969 362.902344 500.308594 363.71875 C 502.523438 365.300781 505.597656 365.828125 508.011719 364.578125 C 509.671875 363.714844 511.238281 362.277344 512.503906 360.914062 C 513.527344 359.8125 514.332031 358.378906 514.214844 356.878906 C 514.097656 355.378906 512.773438 353.929688 511.277344 354.09375 C 512.28125 353.445312 513.628906 353.695312 514.691406 354.238281 C 515.753906 354.785156 516.671875 355.589844 517.757812 356.085938 C 521.523438 357.796875 525.023438 356.652344 528.289062 354.457031 C 528.851562 354.078125 529.421875 353.691406 529.835938 353.152344 C 530.210938 352.667969 530.433594 352.085938 530.636719 351.503906 C 531 350.425781 531.226562 349.300781 531.171875 348.1875 C 531.132812 347.421875 530.960938 346.660156 530.613281 345.921875 C 528.699219 341.855469 523.292969 343.386719 520.132812 341.449219 " fill-opacity="1" fill-rule="nonzero"/><path fill="#f8cbc6" d="M 486.761719 321.417969 C 484.117188 323.320312 484.613281 328.53125 487.871094 333.054688 C 491.125 337.574219 495.90625 339.699219 498.550781 337.796875 C 501.191406 335.894531 500.695312 330.6875 497.4375 326.164062 C 494.183594 321.640625 489.402344 319.519531 486.761719 321.417969 " fill-opacity="1" fill-rule="nonzero"/><path fill="#f8cbc6" d="M 482.902344 339.300781 C 480.261719 341.203125 480.753906 346.410156 484.011719 350.933594 C 487.265625 355.457031 492.046875 357.582031 494.691406 355.679688 C 497.332031 353.777344 496.835938 348.566406 493.582031 344.042969 C 490.324219 339.519531 485.542969 337.398438 482.902344 339.300781 " fill-opacity="1" fill-rule="nonzero"/><path fill="#f8cbc6" d="M 502.394531 311.859375 C 499.253906 312.972656 498.253906 318.234375 500.164062 323.613281 C 502.070312 328.988281 506.160156 332.441406 509.304688 331.328125 C 512.445312 330.214844 513.445312 324.949219 511.539062 319.578125 C 509.628906 314.199219 505.539062 310.742188 502.394531 311.859375 " fill-opacity="1" fill-rule="nonzero"/><path fill="#f8cbc6" d="M 519.691406 319.039062 C 516.550781 320.152344 515.550781 325.414062 517.457031 330.792969 C 519.363281 336.167969 523.457031 339.621094 526.601562 338.507812 C 529.742188 337.390625 530.742188 332.128906 528.832031 326.753906 C 526.925781 321.378906 522.832031 317.921875 519.691406 319.039062 " fill-opacity="1" fill-rule="nonzero"/><path fill="#f8cbc6" d="M 351.441406 341.449219 C 350.464844 340.851562 349.675781 339.984375 349.019531 339.042969 C 347.667969 337.105469 346.652344 335.59375 344.292969 334.851562 C 342.488281 334.285156 340.597656 334.683594 338.742188 334.484375 C 336.839844 334.28125 336.3125 333.972656 334.773438 335.65625 C 333.917969 336.597656 333.390625 338.054688 332.742188 339.140625 C 332.011719 340.371094 330.980469 341.871094 330.578125 343.242188 C 329.855469 345.71875 332.136719 347.964844 332.535156 350.332031 C 332.726562 351.472656 332.675781 352.648438 332.242188 353.734375 C 331.265625 356.1875 328.28125 357.308594 329.128906 360.421875 C 329.5 361.777344 330.476562 362.902344 331.621094 363.71875 C 333.832031 365.300781 336.90625 365.828125 339.320312 364.578125 C 340.980469 363.714844 342.546875 362.277344 343.8125 360.914062 C 344.835938 359.8125 345.640625 358.378906 345.523438 356.878906 C 345.40625 355.378906 344.085938 353.929688 342.585938 354.09375 C 343.589844 353.445312 344.9375 353.695312 346 354.238281 C 347.0625 354.785156 347.980469 355.589844 349.070312 356.085938 C 352.832031 357.796875 356.332031 356.652344 359.597656 354.457031 C 360.160156 354.078125 360.730469 353.691406 361.144531 353.152344 C 361.519531 352.667969 361.742188 352.085938 361.945312 351.503906 C 362.3125 350.425781 362.535156 349.300781 362.480469 348.1875 C 362.441406 347.421875 362.269531 346.660156 361.921875 345.921875 C 360.007812 341.855469 354.605469 343.386719 351.441406 341.449219 " fill-opacity="1" fill-rule="nonzero"/><path fill="#f8cbc6" d="M 318.070312 321.417969 C 315.425781 323.320312 315.921875 328.53125 319.179688 333.054688 C 322.433594 337.574219 327.214844 339.699219 329.859375 337.796875 C 332.5 335.894531 332.003906 330.6875 328.746094 326.164062 C 325.492188 321.640625 320.710938 319.519531 318.070312 321.417969 " fill-opacity="1" fill-rule="nonzero"/><path fill="#f8cbc6" d="M 314.210938 339.300781 C 311.570312 341.203125 312.066406 346.410156 315.320312 350.933594 C 318.574219 355.457031 323.355469 357.582031 326 355.679688 C 328.640625 353.777344 328.144531 348.566406 324.890625 344.042969 C 321.636719 339.519531 316.855469 337.398438 314.210938 339.300781 " fill-opacity="1" fill-rule="nonzero"/><path fill="#f8cbc6" d="M 333.703125 311.859375 C 330.5625 312.972656 329.5625 318.234375 331.472656 323.613281 C 333.378906 328.988281 337.472656 332.441406 340.613281 331.328125 C 343.753906 330.214844 344.753906 324.949219 342.847656 319.578125 C 340.941406 314.199219 336.847656 310.742188 333.703125 311.859375 " fill-opacity="1" fill-rule="nonzero"/><path fill="#f8cbc6" d="M 351 319.039062 C 347.859375 320.152344 346.859375 325.414062 348.765625 330.792969 C 350.671875 336.167969 354.765625 339.621094 357.910156 338.507812 C 361.050781 337.390625 362.050781 332.128906 360.140625 326.753906 C 358.234375 321.378906 354.140625 317.921875 351 319.039062 " fill-opacity="1" fill-rule="nonzero"/><path fill="#f8cbc6" d="M 182.753906 341.449219 C 181.773438 340.851562 180.984375 339.984375 180.328125 339.042969 C 178.976562 337.105469 177.964844 335.59375 175.601562 334.851562 C 173.796875 334.285156 171.90625 334.683594 170.054688 334.484375 C 168.148438 334.28125 167.621094 333.972656 166.082031 335.65625 C 165.226562 336.597656 164.699219 338.054688 164.050781 339.140625 C 163.320312 340.371094 162.289062 341.871094 161.886719 343.242188 C 161.164062 345.71875 163.445312 347.964844 163.84375 350.332031 C 164.035156 351.472656 163.984375 352.648438 163.550781 353.734375 C 162.574219 356.1875 159.589844 357.308594 160.4375 360.421875 C 160.808594 361.777344 161.789062 362.902344 162.929688 363.71875 C 165.140625 365.300781 168.214844 365.828125 170.628906 364.578125 C 172.289062 363.714844 173.855469 362.277344 175.121094 360.914062 C 176.144531 359.8125 176.949219 358.378906 176.832031 356.878906 C 176.714844 355.378906 175.394531 353.929688 173.894531 354.09375 C 174.898438 353.445312 176.246094 353.695312 177.308594 354.238281 C 178.371094 354.785156 179.289062 355.589844 180.378906 356.085938 C 184.140625 357.796875 187.640625 356.652344 190.90625 354.457031 C 191.46875 354.078125 192.039062 353.691406 192.453125 353.152344 C 192.828125 352.667969 193.054688 352.085938 193.253906 351.503906 C 193.621094 350.425781 193.84375 349.300781 193.789062 348.1875 C 193.75 347.421875 193.582031 346.660156 193.230469 345.921875 C 191.316406 341.855469 185.914062 343.386719 182.753906 341.449219 " fill-opacity="1" fill-rule="nonzero"/><path fill="#f8cbc6" d="M 149.378906 321.417969 C 146.734375 323.320312 147.230469 328.53125 150.488281 333.054688 C 153.742188 337.574219 158.523438 339.699219 161.167969 337.796875 C 163.808594 335.894531 163.3125 330.6875 160.054688 326.164062 C 156.800781 321.640625 152.019531 319.519531 149.378906 321.417969 " fill-opacity="1" fill-rule="nonzero"/><path fill="#f8cbc6" d="M 145.519531 339.300781 C 142.878906 341.203125 143.375 346.410156 146.628906 350.933594 C 149.882812 355.457031 154.664062 357.582031 157.308594 355.679688 C 159.949219 353.777344 159.453125 348.566406 156.199219 344.042969 C 152.945312 339.519531 148.164062 337.398438 145.519531 339.300781 " fill-opacity="1" fill-rule="nonzero"/><path fill="#f8cbc6" d="M 165.011719 311.859375 C 161.871094 312.972656 160.871094 318.234375 162.78125 323.613281 C 164.6875 328.988281 168.78125 332.441406 171.921875 331.328125 C 175.0625 330.214844 176.0625 324.949219 174.15625 319.578125 C 172.25 314.199219 168.15625 310.742188 165.011719 311.859375 " fill-opacity="1" fill-rule="nonzero"/><path fill="#f8cbc6" d="M 182.308594 319.039062 C 179.167969 320.152344 178.167969 325.414062 180.074219 330.792969 C 181.984375 336.167969 186.074219 339.621094 189.21875 338.507812 C 192.359375 337.390625 193.359375 332.128906 191.449219 326.753906 C 189.542969 321.378906 185.453125 317.921875 182.308594 319.039062 " fill-opacity="1" fill-rule="nonzero"/><path fill="#f8cbc6" d="M 6.429688 360.914062 C 7.453125 359.8125 8.257812 358.378906 8.140625 356.878906 C 8.023438 355.378906 6.703125 353.929688 5.203125 354.09375 C 6.207031 353.445312 7.554688 353.695312 8.617188 354.238281 C 9.679688 354.785156 10.597656 355.589844 11.6875 356.085938 C 15.449219 357.796875 18.949219 356.652344 22.214844 354.457031 C 22.777344 354.078125 23.351562 353.691406 23.765625 353.152344 C 24.136719 352.667969 24.363281 352.085938 24.5625 351.503906 C 24.929688 350.425781 25.152344 349.300781 25.097656 348.1875 C 25.058594 347.421875 24.886719 346.660156 24.542969 345.921875 C 22.625 341.855469 17.222656 343.386719 14.0625 341.449219 C 13.082031 340.851562 12.292969 339.984375 11.636719 339.042969 C 10.285156 337.105469 9.273438 335.59375 6.910156 334.851562 C 5.109375 334.285156 3.214844 334.683594 1.363281 334.484375 C 0.871094 334.429688 0.46875 334.375 0.117188 334.34375 L 0.117188 365.175781 C 0.746094 365.070312 1.363281 364.875 1.9375 364.578125 C 3.597656 363.714844 5.164062 362.277344 6.429688 360.914062 " fill-opacity="1" fill-rule="nonzero"/><path fill="#f8cbc6" d="M 3.230469 331.328125 C 6.371094 330.214844 7.371094 324.949219 5.464844 319.578125 C 4.277344 316.230469 2.242188 313.628906 0.117188 312.410156 L 0.117188 331.121094 C 1.183594 331.578125 2.253906 331.675781 3.230469 331.328125 " fill-opacity="1" fill-rule="nonzero"/><path fill="#f8cbc6" d="M 13.617188 319.039062 C 10.476562 320.152344 9.476562 325.414062 11.382812 330.792969 C 13.292969 336.167969 17.386719 339.621094 20.527344 338.507812 C 23.667969 337.390625 24.667969 332.128906 22.757812 326.753906 C 20.851562 321.378906 16.761719 317.921875 13.617188 319.039062 " fill-opacity="1" fill-rule="nonzero"/><path fill="#f8cbc6" d="M 672.15625 166.964844 C 671.300781 167.90625 670.773438 169.363281 670.125 170.449219 C 669.394531 171.679688 668.359375 173.179688 667.960938 174.550781 C 667.238281 177.03125 669.519531 179.273438 669.917969 181.640625 C 670.109375 182.785156 670.054688 183.960938 669.625 185.042969 C 668.644531 187.496094 665.660156 188.617188 666.511719 191.730469 C 666.882812 193.085938 667.859375 194.210938 669 195.03125 C 670.683594 196.234375 672.871094 196.824219 674.882812 196.484375 L 674.882812 165.652344 C 673.878906 165.566406 673.296875 165.714844 672.15625 166.964844 " fill-opacity="1" fill-rule="nonzero"/><path fill="#f8cbc6" d="M 655.449219 152.726562 C 652.808594 154.628906 653.304688 159.839844 656.5625 164.363281 C 659.816406 168.886719 664.597656 171.007812 667.242188 169.105469 C 669.882812 167.203125 669.386719 161.996094 666.128906 157.472656 C 662.875 152.949219 658.09375 150.828125 655.449219 152.726562 " fill-opacity="1" fill-rule="nonzero"/><path fill="#f8cbc6" d="M 651.59375 170.609375 C 648.949219 172.511719 649.445312 177.71875 652.703125 182.242188 C 655.957031 186.765625 660.738281 188.890625 663.382812 186.988281 C 666.023438 185.085938 665.527344 179.875 662.273438 175.351562 C 659.015625 170.832031 654.234375 168.707031 651.59375 170.609375 " fill-opacity="1" fill-rule="nonzero"/><path fill="#f8cbc6" d="M 671.085938 143.167969 C 667.945312 144.28125 666.945312 149.542969 668.855469 154.921875 C 670.167969 158.625 672.519531 161.414062 674.882812 162.429688 L 674.882812 143.71875 C 673.59375 142.980469 672.273438 142.746094 671.085938 143.167969 " fill-opacity="1" fill-rule="nonzero"/><path fill="#f8cbc6" d="M 520.132812 172.757812 C 519.15625 172.160156 518.367188 171.292969 517.710938 170.351562 C 516.355469 168.414062 515.34375 166.902344 512.984375 166.164062 C 511.179688 165.59375 509.289062 165.992188 507.433594 165.792969 C 505.53125 165.589844 505.003906 165.28125 503.464844 166.964844 C 502.609375 167.90625 502.082031 169.363281 501.433594 170.449219 C 500.703125 171.679688 499.671875 173.179688 499.269531 174.550781 C 498.546875 177.03125 500.828125 179.273438 501.226562 181.640625 C 501.417969 182.785156 501.363281 183.960938 500.933594 185.042969 C 499.953125 187.496094 496.972656 188.617188 497.820312 191.730469 C 498.191406 193.085938 499.167969 194.210938 500.308594 195.03125 C 502.523438 196.609375 505.597656 197.136719 508.011719 195.886719 C 509.671875 195.023438 511.238281 193.585938 512.503906 192.226562 C 513.527344 191.125 514.332031 189.6875 514.214844 188.1875 C 514.097656 186.6875 512.773438 185.238281 511.277344 185.402344 C 512.28125 184.753906 513.628906 185.003906 514.691406 185.546875 C 515.753906 186.09375 516.671875 186.902344 517.757812 187.394531 C 521.523438 189.105469 525.023438 187.964844 528.289062 185.765625 C 528.851562 185.386719 529.421875 185 529.835938 184.460938 C 530.210938 183.976562 530.433594 183.394531 530.636719 182.8125 C 531 181.734375 531.226562 180.609375 531.171875 179.496094 C 531.132812 178.730469 530.960938 177.96875 530.613281 177.234375 C 528.699219 173.164062 523.292969 174.695312 520.132812 172.757812 " fill-opacity="1" fill-rule="nonzero"/><path fill="#f8cbc6" d="M 486.761719 152.726562 C 484.117188 154.628906 484.613281 159.839844 487.871094 164.363281 C 491.125 168.886719 495.90625 171.007812 498.550781 169.105469 C 501.191406 167.203125 500.695312 161.996094 497.4375 157.472656 C 494.183594 152.949219 489.402344 150.828125 486.761719 152.726562 " fill-opacity="1" fill-rule="nonzero"/><path fill="#f8cbc6" d="M 482.902344 170.609375 C 480.261719 172.511719 480.753906 177.71875 484.011719 182.242188 C 487.265625 186.765625 492.046875 188.890625 494.691406 186.988281 C 497.332031 185.085938 496.835938 179.875 493.582031 175.351562 C 490.324219 170.832031 485.542969 168.707031 482.902344 170.609375 " fill-opacity="1" fill-rule="nonzero"/><path fill="#f8cbc6" d="M 502.394531 143.167969 C 499.253906 144.28125 498.253906 149.542969 500.164062 154.921875 C 502.070312 160.296875 506.160156 163.75 509.304688 162.636719 C 512.445312 161.523438 513.445312 156.257812 511.539062 150.886719 C 509.628906 145.507812 505.539062 142.050781 502.394531 143.167969 " fill-opacity="1" fill-rule="nonzero"/><path fill="#f8cbc6" d="M 519.691406 150.347656 C 516.550781 151.460938 515.550781 156.722656 517.457031 162.101562 C 519.363281 167.476562 523.457031 170.929688 526.601562 169.816406 C 529.742188 168.699219 530.742188 163.441406 528.832031 158.0625 C 526.925781 152.6875 522.832031 149.234375 519.691406 150.347656 " fill-opacity="1" fill-rule="nonzero"/><path fill="#f8cbc6" d="M 351.441406 172.757812 C 350.464844 172.160156 349.675781 171.292969 349.019531 170.351562 C 347.667969 168.414062 346.652344 166.902344 344.292969 166.164062 C 342.488281 165.59375 340.597656 165.992188 338.742188 165.792969 C 336.839844 165.589844 336.3125 165.28125 334.773438 166.964844 C 333.917969 167.90625 333.390625 169.363281 332.742188 170.449219 C 332.011719 171.679688 330.980469 173.179688 330.578125 174.550781 C 329.855469 177.03125 332.136719 179.273438 332.535156 181.640625 C 332.726562 182.785156 332.675781 183.960938 332.242188 185.042969 C 331.265625 187.496094 328.28125 188.617188 329.128906 191.730469 C 329.5 193.085938 330.476562 194.210938 331.621094 195.03125 C 333.832031 196.609375 336.90625 197.136719 339.320312 195.886719 C 340.980469 195.023438 342.546875 193.585938 343.8125 192.226562 C 344.835938 191.125 345.640625 189.6875 345.523438 188.1875 C 345.40625 186.6875 344.085938 185.238281 342.585938 185.402344 C 343.589844 184.753906 344.9375 185.003906 346 185.546875 C 347.0625 186.09375 347.980469 186.902344 349.070312 187.394531 C 352.832031 189.105469 356.332031 187.964844 359.597656 185.765625 C 360.160156 185.386719 360.730469 185 361.144531 184.460938 C 361.519531 183.976562 361.742188 183.394531 361.945312 182.8125 C 362.3125 181.734375 362.535156 180.609375 362.480469 179.496094 C 362.441406 178.730469 362.269531 177.96875 361.921875 177.234375 C 360.007812 173.164062 354.605469 174.695312 351.441406 172.757812 " fill-opacity="1" fill-rule="nonzero"/><path fill="#f8cbc6" d="M 318.070312 152.726562 C 315.425781 154.628906 315.921875 159.839844 319.179688 164.363281 C 322.433594 168.886719 327.214844 171.007812 329.859375 169.105469 C 332.5 167.203125 332.003906 161.996094 328.746094 157.472656 C 325.492188 152.949219 320.710938 150.828125 318.070312 152.726562 " fill-opacity="1" fill-rule="nonzero"/><path fill="#f8cbc6" d="M 314.210938 170.609375 C 311.570312 172.511719 312.066406 177.71875 315.320312 182.242188 C 318.574219 186.765625 323.355469 188.890625 326 186.988281 C 328.640625 185.085938 328.144531 179.875 324.890625 175.351562 C 321.636719 170.832031 316.855469 168.707031 314.210938 170.609375 " fill-opacity="1" fill-rule="nonzero"/><path fill="#f8cbc6" d="M 333.703125 143.167969 C 330.5625 144.28125 329.5625 149.542969 331.472656 154.921875 C 333.378906 160.296875 337.472656 163.75 340.613281 162.636719 C 343.753906 161.523438 344.753906 156.257812 342.847656 150.886719 C 340.941406 145.507812 336.847656 142.050781 333.703125 143.167969 " fill-opacity="1" fill-rule="nonzero"/><path fill="#f8cbc6" d="M 351 150.347656 C 347.859375 151.460938 346.859375 156.722656 348.765625 162.101562 C 350.671875 167.476562 354.765625 170.929688 357.910156 169.816406 C 361.050781 168.699219 362.050781 163.441406 360.140625 158.0625 C 358.234375 152.6875 354.140625 149.234375 351 150.347656 " fill-opacity="1" fill-rule="nonzero"/><path fill="#f8cbc6" d="M 182.753906 172.757812 C 181.773438 172.160156 180.984375 171.292969 180.328125 170.351562 C 178.976562 168.414062 177.964844 166.902344 175.601562 166.164062 C 173.796875 165.59375 171.90625 165.992188 170.054688 165.792969 C 168.148438 165.589844 167.621094 165.28125 166.082031 166.964844 C 165.226562 167.90625 164.699219 169.363281 164.050781 170.449219 C 163.320312 171.679688 162.289062 173.179688 161.886719 174.550781 C 161.164062 177.03125 163.445312 179.273438 163.84375 181.640625 C 164.035156 182.785156 163.984375 183.960938 163.550781 185.042969 C 162.574219 187.496094 159.589844 188.617188 160.4375 191.730469 C 160.808594 193.085938 161.789062 194.210938 162.929688 195.03125 C 165.140625 196.609375 168.214844 197.136719 170.628906 195.886719 C 172.289062 195.023438 173.855469 193.585938 175.121094 192.226562 C 176.144531 191.125 176.949219 189.6875 176.832031 188.1875 C 176.714844 186.6875 175.394531 185.238281 173.894531 185.402344 C 174.898438 184.753906 176.246094 185.003906 177.308594 185.546875 C 178.371094 186.09375 179.289062 186.902344 180.378906 187.394531 C 184.140625 189.105469 187.640625 187.964844 190.90625 185.765625 C 191.46875 185.386719 192.039062 185 192.453125 184.460938 C 192.828125 183.976562 193.054688 183.394531 193.253906 182.8125 C 193.621094 181.734375 193.84375 180.609375 193.789062 179.496094 C 193.75 178.730469 193.582031 177.96875 193.230469 177.234375 C 191.316406 173.164062 185.914062 174.695312 182.753906 172.757812 " fill-opacity="1" fill-rule="nonzero"/><path fill="#f8cbc6" d="M 149.378906 152.726562 C 146.734375 154.628906 147.230469 159.839844 150.488281 164.363281 C 153.742188 168.886719 158.523438 171.007812 161.167969 169.105469 C 163.808594 167.203125 163.3125 161.996094 160.054688 157.472656 C 156.800781 152.949219 152.019531 150.828125 149.378906 152.726562 " fill-opacity="1" fill-rule="nonzero"/><path fill="#f8cbc6" d="M 145.519531 170.609375 C 142.878906 172.511719 143.375 177.71875 146.628906 182.242188 C 149.882812 186.765625 154.664062 188.890625 157.308594 186.988281 C 159.949219 185.085938 159.453125 179.875 156.199219 175.351562 C 152.945312 170.832031 148.164062 168.707031 145.519531 170.609375 " fill-opacity="1" fill-rule="nonzero"/><path fill="#f8cbc6" d="M 165.011719 143.167969 C 161.871094 144.28125 160.871094 149.542969 162.78125 154.921875 C 164.6875 160.296875 168.78125 163.75 171.921875 162.636719 C 175.0625 161.523438 176.0625 156.257812 174.15625 150.886719 C 172.25 145.507812 168.15625 142.050781 165.011719 143.167969 " fill-opacity="1" fill-rule="nonzero"/><path fill="#f8cbc6" d="M 182.308594 150.347656 C 179.167969 151.460938 178.167969 156.722656 180.074219 162.101562 C 181.984375 167.476562 186.074219 170.929688 189.21875 169.816406 C 192.359375 168.699219 193.359375 163.441406 191.449219 158.0625 C 189.542969 152.6875 185.453125 149.234375 182.308594 150.347656 " fill-opacity="1" fill-rule="nonzero"/><path fill="#f8cbc6" d="M 6.429688 192.226562 C 7.453125 191.125 8.257812 189.6875 8.140625 188.1875 C 8.023438 186.6875 6.703125 185.238281 5.203125 185.402344 C 6.207031 184.753906 7.554688 185.003906 8.617188 185.546875 C 9.679688 186.09375 10.597656 186.902344 11.6875 187.394531 C 15.449219 189.105469 18.949219 187.964844 22.214844 185.765625 C 22.777344 185.386719 23.351562 185 23.765625 184.460938 C 24.136719 183.976562 24.363281 183.394531 24.5625 182.8125 C 24.929688 181.734375 25.152344 180.609375 25.097656 179.496094 C 25.058594 178.730469 24.886719 177.96875 24.542969 177.234375 C 22.625 173.164062 17.222656 174.695312 14.0625 172.757812 C 13.082031 172.160156 12.292969 171.292969 11.636719 170.351562 C 10.285156 168.414062 9.273438 166.902344 6.910156 166.164062 C 5.109375 165.59375 3.214844 165.992188 1.363281 165.792969 C 0.871094 165.742188 0.46875 165.683594 0.117188 165.652344 L 0.117188 196.484375 C 0.746094 196.378906 1.363281 196.183594 1.9375 195.886719 C 3.597656 195.023438 5.164062 193.585938 6.429688 192.226562 " fill-opacity="1" fill-rule="nonzero"/><path fill="#f8cbc6" d="M 3.230469 162.636719 C 6.371094 161.523438 7.371094 156.257812 5.464844 150.886719 C 4.277344 147.539062 2.242188 144.9375 0.117188 143.71875 L 0.117188 162.429688 C 1.183594 162.886719 2.253906 162.984375 3.230469 162.636719 " fill-opacity="1" fill-rule="nonzero"/><path fill="#f8cbc6" d="M 13.617188 150.347656 C 10.476562 151.460938 9.476562 156.722656 11.382812 162.101562 C 13.292969 167.476562 17.386719 170.929688 20.527344 169.816406 C 23.667969 168.699219 24.667969 163.441406 22.757812 158.0625 C 20.851562 152.6875 16.761719 149.234375 13.617188 150.347656 " fill-opacity="1" fill-rule="nonzero"/><path fill="#f8cbc6" d="M 670.496094 1.078125 C 670.375 1.3125 670.253906 1.546875 670.125 1.757812 C 669.394531 2.988281 668.359375 4.488281 667.960938 5.859375 C 667.238281 8.339844 669.519531 10.585938 669.917969 12.953125 C 670.109375 14.09375 670.054688 15.265625 669.625 16.351562 C 668.644531 18.804688 665.660156 19.925781 666.511719 23.039062 C 666.882812 24.394531 667.859375 25.519531 669 26.339844 C 670.683594 27.542969 672.871094 28.132812 674.882812 27.792969 L 674.882812 1.078125 L 670.496094 1.078125 " fill-opacity="1" fill-rule="nonzero"/><path fill="#f8cbc6" d="M 665.425781 1.078125 L 664.414062 1.078125 C 664.761719 1.113281 665.101562 1.113281 665.425781 1.078125 " fill-opacity="1" fill-rule="nonzero"/><path fill="#f8cbc6" d="M 651.59375 1.917969 C 648.949219 3.820312 649.445312 9.027344 652.703125 13.550781 C 655.957031 18.074219 660.738281 20.199219 663.382812 18.296875 C 666.023438 16.394531 665.527344 11.183594 662.273438 6.664062 C 659.015625 2.140625 654.234375 0.015625 651.59375 1.917969 " fill-opacity="1" fill-rule="nonzero"/><path fill="#f8cbc6" d="M 499.269531 5.859375 C 498.546875 8.339844 500.828125 10.585938 501.226562 12.953125 C 501.417969 14.09375 501.363281 15.265625 500.933594 16.351562 C 499.953125 18.804688 496.972656 19.925781 497.820312 23.039062 C 498.191406 24.394531 499.167969 25.519531 500.308594 26.339844 C 502.523438 27.921875 505.597656 28.445312 508.011719 27.195312 C 509.671875 26.332031 511.238281 24.898438 512.503906 23.535156 C 513.527344 22.433594 514.332031 20.996094 514.214844 19.496094 C 514.097656 17.996094 512.773438 16.546875 511.277344 16.710938 C 512.28125 16.0625 513.628906 16.3125 514.691406 16.859375 C 515.753906 17.402344 516.671875 18.210938 517.757812 18.703125 C 521.523438 20.414062 525.023438 19.273438 528.289062 17.074219 C 528.851562 16.695312 529.421875 16.308594 529.835938 15.773438 C 530.210938 15.285156 530.433594 14.703125 530.636719 14.121094 C 531 13.042969 531.226562 11.917969 531.171875 10.804688 C 531.132812 10.039062 530.960938 9.277344 530.613281 8.542969 C 528.699219 4.472656 523.292969 6.007812 520.132812 4.070312 C 519.15625 3.46875 518.367188 2.601562 517.710938 1.664062 C 517.570312 1.460938 517.433594 1.269531 517.300781 1.078125 L 501.804688 1.078125 C 501.683594 1.3125 501.5625 1.546875 501.433594 1.757812 C 500.703125 2.988281 499.671875 4.488281 499.269531 5.859375 " fill-opacity="1" fill-rule="nonzero"/><path fill="#f8cbc6" d="M 496.738281 1.078125 L 495.722656 1.078125 C 496.070312 1.113281 496.410156 1.113281 496.738281 1.078125 " fill-opacity="1" fill-rule="nonzero"/><path fill="#f8cbc6" d="M 482.902344 1.917969 C 480.261719 3.820312 480.753906 9.027344 484.011719 13.550781 C 487.265625 18.074219 492.046875 20.199219 494.691406 18.296875 C 497.332031 16.394531 496.835938 11.183594 493.582031 6.664062 C 490.324219 2.140625 485.542969 0.015625 482.902344 1.917969 " fill-opacity="1" fill-rule="nonzero"/><path fill="#f8cbc6" d="M 526.601562 1.125 C 526.632812 1.113281 526.664062 1.09375 526.699219 1.078125 L 523.929688 1.078125 C 524.851562 1.386719 525.757812 1.425781 526.601562 1.125 " fill-opacity="1" fill-rule="nonzero"/><path fill="#f8cbc6" d="M 330.578125 5.859375 C 329.855469 8.339844 332.136719 10.585938 332.535156 12.953125 C 332.726562 14.09375 332.675781 15.265625 332.242188 16.351562 C 331.265625 18.804688 328.28125 19.925781 329.128906 23.039062 C 329.5 24.394531 330.476562 25.519531 331.621094 26.339844 C 333.832031 27.921875 336.90625 28.445312 339.320312 27.195312 C 340.980469 26.332031 342.546875 24.898438 343.8125 23.535156 C 344.835938 22.433594 345.640625 20.996094 345.523438 19.496094 C 345.40625 17.996094 344.085938 16.546875 342.585938 16.710938 C 343.589844 16.0625 344.9375 16.3125 346 16.859375 C 347.0625 17.402344 347.980469 18.210938 349.070312 18.703125 C 352.832031 20.414062 356.332031 19.273438 359.597656 17.074219 C 360.160156 16.695312 360.730469 16.308594 361.144531 15.773438 C 361.519531 15.285156 361.742188 14.703125 361.945312 14.121094 C 362.3125 13.042969 362.535156 11.917969 362.480469 10.804688 C 362.441406 10.039062 362.269531 9.277344 361.921875 8.542969 C 360.007812 4.472656 354.605469 6.007812 351.441406 4.070312 C 350.464844 3.46875 349.675781 2.601562 349.019531 1.664062 C 348.878906 1.460938 348.746094 1.269531 348.609375 1.078125 L 333.113281 1.078125 C 332.992188 1.3125 332.871094 1.546875 332.742188 1.757812 C 332.011719 2.988281 330.980469 4.488281 330.578125 5.859375 " fill-opacity="1" fill-rule="nonzero"/><path fill="#f8cbc6" d="M 328.046875 1.078125 L 327.03125 1.078125 C 327.378906 1.113281 327.71875 1.113281 328.046875 1.078125 " fill-opacity="1" fill-rule="nonzero"/><path fill="#f8cbc6" d="M 314.210938 1.917969 C 311.570312 3.820312 312.066406 9.027344 315.320312 13.550781 C 318.574219 18.074219 323.355469 20.199219 326 18.296875 C 328.640625 16.394531 328.144531 11.183594 324.890625 6.664062 C 321.636719 2.140625 316.855469 0.015625 314.210938 1.917969 " fill-opacity="1" fill-rule="nonzero"/><path fill="#f8cbc6" d="M 357.910156 1.125 C 357.941406 1.113281 357.976562 1.09375 358.007812 1.078125 L 355.238281 1.078125 C 356.160156 1.386719 357.066406 1.425781 357.910156 1.125 " fill-opacity="1" fill-rule="nonzero"/><path fill="#f8cbc6" d="M 161.886719 5.859375 C 161.164062 8.339844 163.445312 10.585938 163.84375 12.953125 C 164.035156 14.09375 163.984375 15.265625 163.550781 16.351562 C 162.574219 18.804688 159.589844 19.925781 160.4375 23.039062 C 160.808594 24.394531 161.789062 25.519531 162.929688 26.339844 C 165.140625 27.921875 168.214844 28.445312 170.628906 27.195312 C 172.289062 26.332031 173.855469 24.898438 175.121094 23.535156 C 176.144531 22.433594 176.949219 20.996094 176.832031 19.496094 C 176.714844 17.996094 175.394531 16.546875 173.894531 16.710938 C 174.898438 16.0625 176.246094 16.3125 177.308594 16.859375 C 178.371094 17.402344 179.289062 18.210938 180.378906 18.703125 C 184.140625 20.414062 187.640625 19.273438 190.90625 17.074219 C 191.46875 16.695312 192.039062 16.308594 192.453125 15.773438 C 192.828125 15.285156 193.054688 14.703125 193.253906 14.121094 C 193.621094 13.042969 193.84375 11.917969 193.789062 10.804688 C 193.75 10.039062 193.582031 9.277344 193.230469 8.542969 C 191.316406 4.472656 185.914062 6.007812 182.753906 4.070312 C 181.773438 3.46875 180.984375 2.601562 180.328125 1.664062 C 180.1875 1.460938 180.054688 1.269531 179.917969 1.078125 L 164.421875 1.078125 C 164.300781 1.3125 164.179688 1.546875 164.050781 1.757812 C 163.320312 2.988281 162.289062 4.488281 161.886719 5.859375 " fill-opacity="1" fill-rule="nonzero"/><path fill="#f8cbc6" d="M 159.355469 1.078125 L 158.339844 1.078125 C 158.6875 1.113281 159.027344 1.113281 159.355469 1.078125 " fill-opacity="1" fill-rule="nonzero"/><path fill="#f8cbc6" d="M 145.519531 1.917969 C 142.878906 3.820312 143.375 9.027344 146.628906 13.550781 C 149.882812 18.074219 154.664062 20.199219 157.308594 18.296875 C 159.949219 16.394531 159.453125 11.183594 156.199219 6.664062 C 152.945312 2.140625 148.164062 0.015625 145.519531 1.917969 " fill-opacity="1" fill-rule="nonzero"/><path fill="#f8cbc6" d="M 189.21875 1.125 C 189.253906 1.113281 189.285156 1.09375 189.316406 1.078125 L 186.546875 1.078125 C 187.46875 1.386719 188.378906 1.425781 189.21875 1.125 " fill-opacity="1" fill-rule="nonzero"/><path fill="#f8cbc6" d="M 6.429688 23.535156 C 7.453125 22.433594 8.257812 20.996094 8.140625 19.496094 C 8.023438 17.996094 6.703125 16.546875 5.203125 16.710938 C 6.207031 16.0625 7.554688 16.3125 8.617188 16.859375 C 9.679688 17.402344 10.597656 18.210938 11.6875 18.703125 C 15.449219 20.414062 18.949219 19.273438 22.214844 17.074219 C 22.777344 16.695312 23.351562 16.308594 23.765625 15.773438 C 24.136719 15.285156 24.363281 14.703125 24.5625 14.121094 C 24.929688 13.042969 25.152344 11.917969 25.097656 10.804688 C 25.058594 10.039062 24.886719 9.277344 24.542969 8.542969 C 22.625 4.472656 17.222656 6.007812 14.0625 4.070312 C 13.082031 3.46875 12.292969 2.601562 11.636719 1.664062 C 11.496094 1.460938 11.363281 1.269531 11.226562 1.078125 L 0.117188 1.078125 L 0.117188 27.792969 C 0.746094 27.6875 1.363281 27.492188 1.9375 27.195312 C 3.597656 26.332031 5.164062 24.898438 6.429688 23.535156 " fill-opacity="1" fill-rule="nonzero"/><path fill="#f8cbc6" d="M 20.527344 1.125 C 20.5625 1.113281 20.59375 1.09375 20.628906 1.078125 L 17.855469 1.078125 C 18.777344 1.386719 19.6875 1.425781 20.527344 1.125 " fill-opacity="1" fill-rule="nonzero"/><path fill="#2f2d27" d="M 595.503906 434.679688 C 595.898438 432.3125 598.179688 430.066406 597.457031 427.585938 C 597.058594 426.214844 596.023438 424.714844 595.292969 423.488281 C 594.644531 422.398438 594.117188 420.945312 593.261719 420.003906 C 591.726562 418.320312 591.199219 418.625 589.292969 418.828125 C 587.4375 419.027344 585.546875 418.632812 583.742188 419.199219 C 581.382812 419.9375 580.371094 421.449219 579.019531 423.390625 C 578.363281 424.332031 577.570312 425.199219 576.59375 425.796875 C 573.433594 427.734375 568.03125 426.203125 566.113281 430.269531 C 565.765625 431.003906 565.597656 431.765625 565.558594 432.535156 C 565.5 433.644531 565.726562 434.769531 566.09375 435.847656 C 566.292969 436.429688 566.515625 437.015625 566.890625 437.5 C 567.304688 438.035156 567.875 438.425781 568.4375 438.800781 C 571.703125 441 575.203125 442.144531 578.96875 440.429688 C 580.054688 439.9375 580.972656 439.128906 582.035156 438.585938 C 583.097656 438.039062 584.449219 437.792969 585.449219 438.441406 C 583.953125 438.273438 582.632812 439.722656 582.511719 441.222656 C 582.398438 442.722656 583.199219 444.160156 584.222656 445.261719 C 585.488281 446.625 587.058594 448.0625 588.714844 448.921875 C 591.128906 450.175781 594.207031 449.648438 596.417969 448.066406 C 597.558594 447.246094 598.535156 446.125 598.90625 444.765625 C 599.757812 441.652344 596.773438 440.53125 595.796875 438.078125 C 595.363281 436.996094 595.308594 435.820312 595.503906 434.679688 " fill-opacity="1" fill-rule="nonzero"/><path fill="#2f2d27" d="M 609.96875 405.765625 C 607.328125 403.863281 602.546875 405.984375 599.289062 410.507812 C 596.03125 415.03125 595.535156 420.238281 598.175781 422.144531 C 600.820312 424.046875 605.601562 421.921875 608.859375 417.398438 C 612.113281 412.875 612.609375 407.667969 609.96875 405.765625 " fill-opacity="1" fill-rule="nonzero"/><path fill="#2f2d27" d="M 613.828125 423.644531 C 611.183594 421.746094 606.402344 423.867188 603.144531 428.390625 C 599.890625 432.914062 599.394531 438.121094 602.035156 440.023438 C 604.679688 441.925781 609.460938 439.804688 612.714844 435.28125 C 615.972656 430.757812 616.46875 425.546875 613.828125 423.644531 " fill-opacity="1" fill-rule="nonzero"/><path fill="#2f2d27" d="M 594.332031 396.203125 C 591.191406 395.089844 587.097656 398.542969 585.1875 403.921875 C 583.28125 409.296875 584.28125 414.558594 587.421875 415.675781 C 590.566406 416.785156 594.65625 413.335938 596.566406 407.957031 C 598.472656 402.578125 597.472656 397.320312 594.332031 396.203125 " fill-opacity="1" fill-rule="nonzero"/><path fill="#2f2d27" d="M 577.035156 403.382812 C 573.894531 402.269531 569.804688 405.722656 567.894531 411.097656 C 565.988281 416.476562 566.984375 421.738281 570.128906 422.851562 C 573.269531 423.96875 577.363281 420.515625 579.269531 415.136719 C 581.175781 409.761719 580.179688 404.5 577.035156 403.382812 " fill-opacity="1" fill-rule="nonzero"/><path fill="#2f2d27" d="M 426.8125 434.679688 C 427.210938 432.3125 429.488281 430.066406 428.765625 427.585938 C 428.367188 426.214844 427.332031 424.714844 426.601562 423.488281 C 425.953125 422.398438 425.425781 420.945312 424.570312 420.003906 C 423.035156 418.320312 422.507812 418.625 420.601562 418.828125 C 418.75 419.027344 416.855469 418.632812 415.054688 419.199219 C 412.691406 419.9375 411.679688 421.449219 410.328125 423.390625 C 409.671875 424.332031 408.878906 425.199219 407.902344 425.796875 C 404.742188 427.734375 399.339844 426.203125 397.421875 430.269531 C 397.074219 431.003906 396.90625 431.765625 396.867188 432.535156 C 396.8125 433.644531 397.035156 434.769531 397.402344 435.847656 C 397.601562 436.429688 397.824219 437.015625 398.199219 437.5 C 398.613281 438.035156 399.183594 438.425781 399.746094 438.800781 C 403.011719 441 406.511719 442.144531 410.277344 440.429688 C 411.367188 439.9375 412.28125 439.128906 413.34375 438.585938 C 414.40625 438.039062 415.757812 437.792969 416.757812 438.441406 C 415.261719 438.273438 413.941406 439.722656 413.820312 441.222656 C 413.707031 442.722656 414.511719 444.160156 415.53125 445.261719 C 416.796875 446.625 418.367188 448.0625 420.023438 448.921875 C 422.4375 450.175781 425.515625 449.648438 427.726562 448.066406 C 428.867188 447.246094 429.84375 446.125 430.214844 444.765625 C 431.066406 441.652344 428.082031 440.53125 427.105469 438.078125 C 426.671875 436.996094 426.617188 435.820312 426.8125 434.679688 " fill-opacity="1" fill-rule="nonzero"/><path fill="#2f2d27" d="M 441.277344 405.765625 C 438.636719 403.863281 433.855469 405.984375 430.597656 410.507812 C 427.339844 415.03125 426.84375 420.238281 429.488281 422.144531 C 432.128906 424.046875 436.910156 421.921875 440.167969 417.398438 C 443.421875 412.875 443.921875 407.667969 441.277344 405.765625 " fill-opacity="1" fill-rule="nonzero"/><path fill="#2f2d27" d="M 445.136719 423.644531 C 442.492188 421.746094 437.710938 423.867188 434.457031 428.390625 C 431.199219 432.914062 430.703125 438.121094 433.34375 440.023438 C 435.988281 441.925781 440.769531 439.804688 444.027344 435.28125 C 447.28125 430.757812 447.777344 425.546875 445.136719 423.644531 " fill-opacity="1" fill-rule="nonzero"/><path fill="#2f2d27" d="M 425.640625 396.203125 C 422.5 395.089844 418.40625 398.542969 416.496094 403.921875 C 414.589844 409.296875 415.589844 414.558594 418.734375 415.675781 C 421.875 416.785156 425.964844 413.335938 427.875 407.957031 C 429.78125 402.578125 428.78125 397.320312 425.640625 396.203125 " fill-opacity="1" fill-rule="nonzero"/><path fill="#2f2d27" d="M 408.34375 403.382812 C 405.203125 402.269531 401.113281 405.722656 399.203125 411.097656 C 397.296875 416.476562 398.292969 421.738281 401.4375 422.851562 C 404.578125 423.96875 408.671875 420.515625 410.582031 415.136719 C 412.484375 409.761719 411.488281 404.5 408.34375 403.382812 " fill-opacity="1" fill-rule="nonzero"/><path fill="#2f2d27" d="M 258.121094 434.679688 C 258.519531 432.3125 260.796875 430.066406 260.074219 427.585938 C 259.675781 426.214844 258.640625 424.714844 257.910156 423.488281 C 257.265625 422.398438 256.738281 420.945312 255.878906 420.003906 C 254.34375 418.320312 253.816406 418.625 251.910156 418.828125 C 250.058594 419.027344 248.164062 418.632812 246.363281 419.199219 C 244 419.9375 242.988281 421.449219 241.636719 423.390625 C 240.980469 424.332031 240.1875 425.199219 239.210938 425.796875 C 236.050781 427.734375 230.648438 426.203125 228.730469 430.269531 C 228.382812 431.003906 228.214844 431.765625 228.175781 432.535156 C 228.121094 433.644531 228.34375 434.769531 228.710938 435.847656 C 228.910156 436.429688 229.132812 437.015625 229.507812 437.5 C 229.921875 438.035156 230.496094 438.425781 231.054688 438.800781 C 234.320312 441 237.820312 442.144531 241.585938 440.429688 C 242.675781 439.9375 243.59375 439.128906 244.652344 438.585938 C 245.714844 438.039062 247.066406 437.792969 248.066406 438.441406 C 246.570312 438.273438 245.25 439.722656 245.132812 441.222656 C 245.015625 442.722656 245.820312 444.160156 246.839844 445.261719 C 248.105469 446.625 249.675781 448.0625 251.332031 448.921875 C 253.746094 450.175781 256.824219 449.648438 259.035156 448.066406 C 260.175781 447.246094 261.152344 446.125 261.527344 444.765625 C 262.375 441.652344 259.390625 440.53125 258.414062 438.078125 C 257.980469 436.996094 257.929688 435.820312 258.121094 434.679688 " fill-opacity="1" fill-rule="nonzero"/><path fill="#2f2d27" d="M 272.585938 405.765625 C 269.945312 403.863281 265.164062 405.984375 261.90625 410.507812 C 258.648438 415.03125 258.15625 420.238281 260.796875 422.144531 C 263.4375 424.046875 268.21875 421.921875 271.476562 417.398438 C 274.730469 412.875 275.230469 407.667969 272.585938 405.765625 " fill-opacity="1" fill-rule="nonzero"/><path fill="#2f2d27" d="M 276.445312 423.644531 C 273.800781 421.746094 269.019531 423.867188 265.765625 428.390625 C 262.507812 432.914062 262.011719 438.121094 264.65625 440.023438 C 267.296875 441.925781 272.078125 439.804688 275.335938 435.28125 C 278.589844 430.757812 279.085938 425.546875 276.445312 423.644531 " fill-opacity="1" fill-rule="nonzero"/><path fill="#2f2d27" d="M 256.949219 396.203125 C 253.808594 395.089844 249.714844 398.542969 247.804688 403.921875 C 245.902344 409.296875 246.898438 414.558594 250.042969 415.675781 C 253.183594 416.785156 257.273438 413.335938 259.183594 407.957031 C 261.089844 402.578125 260.09375 397.320312 256.949219 396.203125 " fill-opacity="1" fill-rule="nonzero"/><path fill="#2f2d27" d="M 239.652344 403.382812 C 236.511719 402.269531 232.421875 405.722656 230.511719 411.097656 C 228.605469 416.476562 229.605469 421.738281 232.746094 422.851562 C 235.886719 423.96875 239.980469 420.515625 241.890625 415.136719 C 243.792969 409.761719 242.796875 404.5 239.652344 403.382812 " fill-opacity="1" fill-rule="nonzero"/><path fill="#2f2d27" d="M 89.429688 434.679688 C 89.828125 432.3125 92.105469 430.066406 91.386719 427.585938 C 90.984375 426.214844 89.953125 424.714844 89.222656 423.488281 C 88.574219 422.398438 88.046875 420.945312 87.1875 420.003906 C 85.652344 418.320312 85.125 418.625 83.21875 418.828125 C 81.367188 419.027344 79.472656 418.632812 77.671875 419.199219 C 75.308594 419.9375 74.296875 421.449219 72.945312 423.390625 C 72.289062 424.332031 71.496094 425.199219 70.519531 425.796875 C 67.359375 427.734375 61.957031 426.203125 60.039062 430.269531 C 59.695312 431.003906 59.523438 431.765625 59.484375 432.535156 C 59.429688 433.644531 59.648438 434.769531 60.019531 435.847656 C 60.21875 436.429688 60.445312 437.015625 60.816406 437.5 C 61.230469 438.035156 61.804688 438.425781 62.363281 438.800781 C 65.628906 441 69.132812 442.144531 72.894531 440.429688 C 73.984375 439.9375 74.902344 439.128906 75.964844 438.585938 C 77.023438 438.039062 78.375 437.792969 79.375 438.441406 C 77.878906 438.273438 76.558594 439.722656 76.441406 441.222656 C 76.324219 442.722656 77.128906 444.160156 78.152344 445.261719 C 79.414062 446.625 80.984375 448.0625 82.640625 448.921875 C 85.054688 450.175781 88.132812 449.648438 90.34375 448.066406 C 91.484375 447.246094 92.464844 446.125 92.835938 444.765625 C 93.683594 441.652344 90.699219 440.53125 89.722656 438.078125 C 89.289062 436.996094 89.238281 435.820312 89.429688 434.679688 " fill-opacity="1" fill-rule="nonzero"/><path fill="#2f2d27" d="M 103.894531 405.765625 C 101.253906 403.863281 96.472656 405.984375 93.21875 410.507812 C 89.960938 415.03125 89.464844 420.238281 92.105469 422.144531 C 94.75 424.046875 99.53125 421.921875 102.785156 417.398438 C 106.039062 412.875 106.539062 407.667969 103.894531 405.765625 " fill-opacity="1" fill-rule="nonzero"/><path fill="#2f2d27" d="M 107.753906 423.644531 C 105.109375 421.746094 100.328125 423.867188 97.074219 428.390625 C 93.816406 432.914062 93.324219 438.121094 95.964844 440.023438 C 98.605469 441.925781 103.386719 439.804688 106.644531 435.28125 C 109.898438 430.757812 110.394531 425.546875 107.753906 423.644531 " fill-opacity="1" fill-rule="nonzero"/><path fill="#2f2d27" d="M 88.257812 396.203125 C 85.117188 395.089844 81.023438 398.542969 79.117188 403.921875 C 77.210938 409.296875 78.207031 414.558594 81.351562 415.675781 C 84.492188 416.785156 88.582031 413.335938 90.492188 407.957031 C 92.398438 402.578125 91.402344 397.320312 88.257812 396.203125 " fill-opacity="1" fill-rule="nonzero"/><path fill="#2f2d27" d="M 70.964844 403.382812 C 67.820312 402.269531 63.730469 405.722656 61.820312 411.097656 C 59.914062 416.476562 60.914062 421.738281 64.054688 422.851562 C 67.195312 423.96875 71.289062 420.515625 73.199219 415.136719 C 75.105469 409.761719 74.105469 404.5 70.964844 403.382812 " fill-opacity="1" fill-rule="nonzero"/><path fill="#2f2d27" d="M 595.503906 265.988281 C 595.898438 263.621094 598.179688 261.375 597.457031 258.894531 C 597.058594 257.523438 596.023438 256.023438 595.292969 254.796875 C 594.644531 253.707031 594.117188 252.253906 593.261719 251.3125 C 591.726562 249.628906 591.199219 249.9375 589.292969 250.140625 C 587.4375 250.335938 585.546875 249.941406 583.742188 250.507812 C 581.382812 251.25 580.371094 252.757812 579.019531 254.699219 C 578.363281 255.640625 577.570312 256.507812 576.59375 257.105469 C 573.433594 259.042969 568.03125 257.511719 566.113281 261.578125 C 565.765625 262.3125 565.597656 263.074219 565.558594 263.84375 C 565.5 264.953125 565.726562 266.078125 566.09375 267.15625 C 566.292969 267.742188 566.515625 268.324219 566.890625 268.808594 C 567.304688 269.347656 567.875 269.734375 568.4375 270.109375 C 571.703125 272.308594 575.203125 273.453125 578.96875 271.738281 C 580.054688 271.246094 580.972656 270.441406 582.035156 269.894531 C 583.097656 269.347656 584.449219 269.101562 585.449219 269.75 C 583.953125 269.582031 582.632812 271.03125 582.511719 272.53125 C 582.398438 274.03125 583.199219 275.46875 584.222656 276.570312 C 585.488281 277.933594 587.058594 279.371094 588.714844 280.230469 C 591.128906 281.484375 594.207031 280.957031 596.417969 279.375 C 597.558594 278.554688 598.535156 277.433594 598.90625 276.074219 C 599.757812 272.960938 596.773438 271.84375 595.796875 269.386719 C 595.363281 268.304688 595.308594 267.128906 595.503906 265.988281 " fill-opacity="1" fill-rule="nonzero"/><path fill="#2f2d27" d="M 609.96875 237.074219 C 607.328125 235.171875 602.546875 237.292969 599.289062 241.816406 C 596.03125 246.339844 595.535156 251.550781 598.175781 253.453125 C 600.820312 255.355469 605.601562 253.230469 608.859375 248.707031 C 612.113281 244.183594 612.609375 238.976562 609.96875 237.074219 " fill-opacity="1" fill-rule="nonzero"/><path fill="#2f2d27" d="M 613.828125 254.953125 C 611.183594 253.054688 606.402344 255.175781 603.144531 259.699219 C 599.890625 264.222656 599.394531 269.429688 602.035156 271.332031 C 604.679688 273.234375 609.460938 271.113281 612.714844 266.589844 C 615.972656 262.066406 616.46875 256.855469 613.828125 254.953125 " fill-opacity="1" fill-rule="nonzero"/><path fill="#2f2d27" d="M 594.332031 227.511719 C 591.191406 226.398438 587.097656 229.855469 585.1875 235.230469 C 583.28125 240.605469 584.28125 245.867188 587.421875 246.984375 C 590.566406 248.097656 594.65625 244.644531 596.566406 239.265625 C 598.472656 233.890625 597.472656 228.628906 594.332031 227.511719 " fill-opacity="1" fill-rule="nonzero"/><path fill="#2f2d27" d="M 577.035156 234.691406 C 573.894531 233.578125 569.804688 237.035156 567.894531 242.40625 C 565.988281 247.785156 566.984375 253.046875 570.128906 254.160156 C 573.269531 255.277344 577.363281 251.824219 579.269531 246.445312 C 581.175781 241.070312 580.179688 235.808594 577.035156 234.691406 " fill-opacity="1" fill-rule="nonzero"/><path fill="#2f2d27" d="M 426.8125 265.988281 C 427.210938 263.621094 429.488281 261.375 428.765625 258.894531 C 428.367188 257.523438 427.332031 256.023438 426.601562 254.796875 C 425.953125 253.707031 425.425781 252.253906 424.570312 251.3125 C 423.035156 249.628906 422.507812 249.9375 420.601562 250.140625 C 418.75 250.335938 416.855469 249.941406 415.054688 250.507812 C 412.691406 251.25 411.679688 252.757812 410.328125 254.699219 C 409.671875 255.640625 408.878906 256.507812 407.902344 257.105469 C 404.742188 259.042969 399.339844 257.511719 397.421875 261.578125 C 397.074219 262.3125 396.90625 263.074219 396.867188 263.84375 C 396.8125 264.953125 397.035156 266.078125 397.402344 267.15625 C 397.601562 267.742188 397.824219 268.324219 398.199219 268.808594 C 398.613281 269.347656 399.183594 269.734375 399.746094 270.109375 C 403.011719 272.308594 406.511719 273.453125 410.277344 271.738281 C 411.367188 271.246094 412.28125 270.441406 413.34375 269.894531 C 414.40625 269.347656 415.757812 269.101562 416.757812 269.75 C 415.261719 269.582031 413.941406 271.03125 413.820312 272.53125 C 413.707031 274.03125 414.511719 275.46875 415.53125 276.570312 C 416.796875 277.933594 418.367188 279.371094 420.023438 280.230469 C 422.4375 281.484375 425.515625 280.957031 427.726562 279.375 C 428.867188 278.554688 429.84375 277.433594 430.214844 276.074219 C 431.066406 272.960938 428.082031 271.84375 427.105469 269.386719 C 426.671875 268.304688 426.617188 267.128906 426.8125 265.988281 " fill-opacity="1" fill-rule="nonzero"/><path fill="#2f2d27" d="M 441.277344 237.074219 C 438.636719 235.171875 433.855469 237.292969 430.597656 241.816406 C 427.339844 246.339844 426.84375 251.550781 429.488281 253.453125 C 432.128906 255.355469 436.910156 253.230469 440.167969 248.707031 C 443.421875 244.183594 443.921875 238.976562 441.277344 237.074219 " fill-opacity="1" fill-rule="nonzero"/><path fill="#2f2d27" d="M 445.136719 254.953125 C 442.492188 253.054688 437.710938 255.175781 434.457031 259.699219 C 431.199219 264.222656 430.703125 269.429688 433.34375 271.332031 C 435.988281 273.234375 440.769531 271.113281 444.027344 266.589844 C 447.28125 262.066406 447.777344 256.855469 445.136719 254.953125 " fill-opacity="1" fill-rule="nonzero"/><path fill="#2f2d27" d="M 425.640625 227.511719 C 422.5 226.398438 418.40625 229.855469 416.496094 235.230469 C 414.589844 240.605469 415.589844 245.867188 418.734375 246.984375 C 421.875 248.097656 425.964844 244.644531 427.875 239.265625 C 429.78125 233.890625 428.78125 228.628906 425.640625 227.511719 " fill-opacity="1" fill-rule="nonzero"/><path fill="#2f2d27" d="M 408.34375 234.691406 C 405.203125 233.578125 401.113281 237.035156 399.203125 242.40625 C 397.296875 247.785156 398.292969 253.046875 401.4375 254.160156 C 404.578125 255.277344 408.671875 251.824219 410.582031 246.445312 C 412.484375 241.070312 411.488281 235.808594 408.34375 234.691406 " fill-opacity="1" fill-rule="nonzero"/><path fill="#2f2d27" d="M 258.121094 265.988281 C 258.519531 263.621094 260.796875 261.375 260.074219 258.894531 C 259.675781 257.523438 258.640625 256.023438 257.910156 254.796875 C 257.265625 253.707031 256.738281 252.253906 255.878906 251.3125 C 254.34375 249.628906 253.816406 249.9375 251.910156 250.140625 C 250.058594 250.335938 248.164062 249.941406 246.363281 250.507812 C 244 251.25 242.988281 252.757812 241.636719 254.699219 C 240.980469 255.640625 240.1875 256.507812 239.210938 257.105469 C 236.050781 259.042969 230.648438 257.511719 228.730469 261.578125 C 228.382812 262.3125 228.214844 263.074219 228.175781 263.84375 C 228.121094 264.953125 228.34375 266.078125 228.710938 267.15625 C 228.910156 267.742188 229.132812 268.324219 229.507812 268.808594 C 229.921875 269.347656 230.496094 269.734375 231.054688 270.109375 C 234.320312 272.308594 237.820312 273.453125 241.585938 271.738281 C 242.675781 271.246094 243.59375 270.441406 244.652344 269.894531 C 245.714844 269.347656 247.066406 269.101562 248.066406 269.75 C 246.570312 269.582031 245.25 271.03125 245.132812 272.53125 C 245.015625 274.03125 245.820312 275.46875 246.839844 276.570312 C 248.105469 277.933594 249.675781 279.371094 251.332031 280.230469 C 253.746094 281.484375 256.824219 280.957031 259.035156 279.375 C 260.175781 278.554688 261.152344 277.433594 261.527344 276.074219 C 262.375 272.960938 259.390625 271.84375 258.414062 269.386719 C 257.980469 268.304688 257.929688 267.128906 258.121094 265.988281 " fill-opacity="1" fill-rule="nonzero"/><path fill="#2f2d27" d="M 272.585938 237.074219 C 269.945312 235.171875 265.164062 237.292969 261.90625 241.816406 C 258.648438 246.339844 258.15625 251.550781 260.796875 253.453125 C 263.4375 255.355469 268.21875 253.230469 271.476562 248.707031 C 274.730469 244.183594 275.230469 238.976562 272.585938 237.074219 " fill-opacity="1" fill-rule="nonzero"/><path fill="#2f2d27" d="M 276.445312 254.953125 C 273.800781 253.054688 269.019531 255.175781 265.765625 259.699219 C 262.507812 264.222656 262.011719 269.429688 264.65625 271.332031 C 267.296875 273.234375 272.078125 271.113281 275.335938 266.589844 C 278.589844 262.066406 279.085938 256.855469 276.445312 254.953125 " fill-opacity="1" fill-rule="nonzero"/><path fill="#2f2d27" d="M 256.949219 227.511719 C 253.808594 226.398438 249.714844 229.855469 247.804688 235.230469 C 245.902344 240.605469 246.898438 245.867188 250.042969 246.984375 C 253.183594 248.097656 257.273438 244.644531 259.183594 239.265625 C 261.089844 233.890625 260.09375 228.628906 256.949219 227.511719 " fill-opacity="1" fill-rule="nonzero"/><path fill="#2f2d27" d="M 239.652344 234.691406 C 236.511719 233.578125 232.421875 237.035156 230.511719 242.40625 C 228.605469 247.785156 229.605469 253.046875 232.746094 254.160156 C 235.886719 255.277344 239.980469 251.824219 241.890625 246.445312 C 243.792969 241.070312 242.796875 235.808594 239.652344 234.691406 " fill-opacity="1" fill-rule="nonzero"/><path fill="#2f2d27" d="M 89.429688 265.988281 C 89.828125 263.621094 92.105469 261.375 91.386719 258.894531 C 90.984375 257.523438 89.953125 256.023438 89.222656 254.796875 C 88.574219 253.707031 88.046875 252.253906 87.1875 251.3125 C 85.652344 249.628906 85.125 249.9375 83.21875 250.140625 C 81.367188 250.335938 79.472656 249.941406 77.671875 250.507812 C 75.308594 251.25 74.296875 252.757812 72.945312 254.699219 C 72.289062 255.640625 71.496094 256.507812 70.519531 257.105469 C 67.359375 259.042969 61.957031 257.511719 60.039062 261.578125 C 59.695312 262.3125 59.523438 263.074219 59.484375 263.84375 C 59.429688 264.953125 59.648438 266.078125 60.019531 267.15625 C 60.21875 267.742188 60.445312 268.324219 60.816406 268.808594 C 61.230469 269.347656 61.804688 269.734375 62.363281 270.109375 C 65.628906 272.308594 69.132812 273.453125 72.894531 271.738281 C 73.984375 271.246094 74.902344 270.441406 75.964844 269.894531 C 77.023438 269.347656 78.375 269.101562 79.375 269.75 C 77.878906 269.582031 76.558594 271.03125 76.441406 272.53125 C 76.324219 274.03125 77.128906 275.46875 78.152344 276.570312 C 79.414062 277.933594 80.984375 279.371094 82.640625 280.230469 C 85.054688 281.484375 88.132812 280.957031 90.34375 279.375 C 91.484375 278.554688 92.464844 277.433594 92.835938 276.074219 C 93.683594 272.960938 90.699219 271.84375 89.722656 269.386719 C 89.289062 268.304688 89.238281 267.128906 89.429688 265.988281 " fill-opacity="1" fill-rule="nonzero"/><path fill="#2f2d27" d="M 103.894531 237.074219 C 101.253906 235.171875 96.472656 237.292969 93.21875 241.816406 C 89.960938 246.339844 89.464844 251.550781 92.105469 253.453125 C 94.75 255.355469 99.53125 253.230469 102.785156 248.707031 C 106.039062 244.183594 106.539062 238.976562 103.894531 237.074219 " fill-opacity="1" fill-rule="nonzero"/><path fill="#2f2d27" d="M 107.753906 254.953125 C 105.109375 253.054688 100.328125 255.175781 97.074219 259.699219 C 93.816406 264.222656 93.324219 269.429688 95.964844 271.332031 C 98.605469 273.234375 103.386719 271.113281 106.644531 266.589844 C 109.898438 262.066406 110.394531 256.855469 107.753906 254.953125 " fill-opacity="1" fill-rule="nonzero"/><path fill="#2f2d27" d="M 88.257812 227.511719 C 85.117188 226.398438 81.023438 229.855469 79.117188 235.230469 C 77.210938 240.605469 78.207031 245.867188 81.351562 246.984375 C 84.492188 248.097656 88.582031 244.644531 90.492188 239.265625 C 92.398438 233.890625 91.402344 228.628906 88.257812 227.511719 " fill-opacity="1" fill-rule="nonzero"/><path fill="#2f2d27" d="M 70.964844 234.691406 C 67.820312 233.578125 63.730469 237.035156 61.820312 242.40625 C 59.914062 247.785156 60.914062 253.046875 64.054688 254.160156 C 67.195312 255.277344 71.289062 251.824219 73.199219 246.445312 C 75.105469 241.070312 74.105469 235.808594 70.964844 234.691406 " fill-opacity="1" fill-rule="nonzero"/><path fill="#2f2d27" d="M 595.503906 97.296875 C 595.898438 94.929688 598.179688 92.683594 597.457031 90.203125 C 597.058594 88.832031 596.023438 87.332031 595.292969 86.105469 C 594.644531 85.015625 594.117188 83.5625 593.261719 82.621094 C 591.726562 80.9375 591.199219 81.246094 589.292969 81.449219 C 587.4375 81.644531 585.546875 81.25 583.742188 81.816406 C 581.382812 82.558594 580.371094 84.066406 579.019531 86.007812 C 578.363281 86.949219 577.570312 87.816406 576.59375 88.414062 C 573.433594 90.351562 568.03125 88.820312 566.113281 92.886719 C 565.765625 93.621094 565.597656 94.382812 565.558594 95.152344 C 565.5 96.261719 565.726562 97.390625 566.09375 98.46875 C 566.292969 99.050781 566.515625 99.632812 566.890625 100.117188 C 567.304688 100.65625 567.875 101.042969 568.4375 101.417969 C 571.703125 103.617188 575.203125 104.761719 578.96875 103.046875 C 580.054688 102.554688 580.972656 101.75 582.035156 101.203125 C 583.097656 100.65625 584.449219 100.410156 585.449219 101.058594 C 583.953125 100.890625 582.632812 102.339844 582.511719 103.839844 C 582.398438 105.339844 583.199219 106.777344 584.222656 107.878906 C 585.488281 109.242188 587.058594 110.679688 588.714844 111.539062 C 591.128906 112.792969 594.207031 112.265625 596.417969 110.683594 C 597.558594 109.863281 598.535156 108.742188 598.90625 107.382812 C 599.757812 104.269531 596.773438 103.152344 595.796875 100.695312 C 595.363281 99.613281 595.308594 98.4375 595.503906 97.296875 " fill-opacity="1" fill-rule="nonzero"/><path fill="#2f2d27" d="M 609.96875 68.382812 C 607.328125 66.480469 602.546875 68.601562 599.289062 73.125 C 596.03125 77.648438 595.535156 82.859375 598.175781 84.761719 C 600.820312 86.664062 605.601562 84.539062 608.859375 80.015625 C 612.113281 75.492188 612.609375 70.285156 609.96875 68.382812 " fill-opacity="1" fill-rule="nonzero"/><path fill="#2f2d27" d="M 613.828125 86.261719 C 611.183594 84.363281 606.402344 86.484375 603.144531 91.007812 C 599.890625 95.53125 599.394531 100.738281 602.035156 102.640625 C 604.679688 104.546875 609.460938 102.421875 612.714844 97.898438 C 615.972656 93.375 616.46875 88.167969 613.828125 86.261719 " fill-opacity="1" fill-rule="nonzero"/><path fill="#2f2d27" d="M 594.332031 58.820312 C 591.191406 57.707031 587.097656 61.164062 585.1875 66.539062 C 583.28125 71.914062 584.28125 77.175781 587.421875 78.292969 C 590.566406 79.40625 594.65625 75.953125 596.566406 70.574219 C 598.472656 65.199219 597.472656 59.9375 594.332031 58.820312 " fill-opacity="1" fill-rule="nonzero"/><path fill="#2f2d27" d="M 577.035156 66 C 573.894531 64.886719 569.804688 68.34375 567.894531 73.71875 C 565.988281 79.09375 566.984375 84.355469 570.128906 85.46875 C 573.269531 86.585938 577.363281 83.132812 579.269531 77.753906 C 581.175781 72.378906 580.179688 67.117188 577.035156 66 " fill-opacity="1" fill-rule="nonzero"/><path fill="#2f2d27" d="M 426.8125 97.296875 C 427.210938 94.929688 429.488281 92.683594 428.765625 90.203125 C 428.367188 88.832031 427.332031 87.332031 426.601562 86.105469 C 425.953125 85.015625 425.425781 83.5625 424.570312 82.621094 C 423.035156 80.9375 422.507812 81.246094 420.601562 81.449219 C 418.75 81.644531 416.855469 81.25 415.054688 81.816406 C 412.691406 82.558594 411.679688 84.066406 410.328125 86.007812 C 409.671875 86.949219 408.878906 87.816406 407.902344 88.414062 C 404.742188 90.351562 399.339844 88.820312 397.421875 92.886719 C 397.074219 93.621094 396.90625 94.382812 396.867188 95.152344 C 396.8125 96.261719 397.035156 97.390625 397.402344 98.46875 C 397.601562 99.050781 397.824219 99.632812 398.199219 100.117188 C 398.613281 100.65625 399.183594 101.042969 399.746094 101.417969 C 403.011719 103.617188 406.511719 104.761719 410.277344 103.046875 C 411.367188 102.554688 412.28125 101.75 413.34375 101.203125 C 414.40625 100.65625 415.757812 100.410156 416.757812 101.058594 C 415.261719 100.890625 413.941406 102.339844 413.820312 103.839844 C 413.707031 105.339844 414.511719 106.777344 415.53125 107.878906 C 416.796875 109.242188 418.367188 110.679688 420.023438 111.539062 C 422.4375 112.792969 425.515625 112.265625 427.726562 110.683594 C 428.867188 109.863281 429.84375 108.742188 430.214844 107.382812 C 431.066406 104.269531 428.082031 103.152344 427.105469 100.695312 C 426.671875 99.613281 426.617188 98.4375 426.8125 97.296875 " fill-opacity="1" fill-rule="nonzero"/><path fill="#2f2d27" d="M 441.277344 68.382812 C 438.636719 66.480469 433.855469 68.601562 430.597656 73.125 C 427.339844 77.648438 426.84375 82.859375 429.488281 84.761719 C 432.128906 86.664062 436.910156 84.539062 440.167969 80.015625 C 443.421875 75.492188 443.921875 70.285156 441.277344 68.382812 " fill-opacity="1" fill-rule="nonzero"/><path fill="#2f2d27" d="M 445.136719 86.261719 C 442.492188 84.363281 437.710938 86.484375 434.457031 91.007812 C 431.199219 95.53125 430.703125 100.738281 433.34375 102.640625 C 435.988281 104.546875 440.769531 102.421875 444.027344 97.898438 C 447.28125 93.375 447.777344 88.167969 445.136719 86.261719 " fill-opacity="1" fill-rule="nonzero"/><path fill="#2f2d27" d="M 425.640625 58.820312 C 422.5 57.707031 418.40625 61.164062 416.496094 66.539062 C 414.589844 71.914062 415.589844 77.175781 418.734375 78.292969 C 421.875 79.40625 425.964844 75.953125 427.875 70.574219 C 429.78125 65.199219 428.78125 59.9375 425.640625 58.820312 " fill-opacity="1" fill-rule="nonzero"/><path fill="#2f2d27" d="M 408.34375 66 C 405.203125 64.886719 401.113281 68.34375 399.203125 73.71875 C 397.296875 79.09375 398.292969 84.355469 401.4375 85.46875 C 404.578125 86.585938 408.671875 83.132812 410.582031 77.753906 C 412.484375 72.378906 411.488281 67.117188 408.34375 66 " fill-opacity="1" fill-rule="nonzero"/><path fill="#2f2d27" d="M 258.121094 97.296875 C 258.519531 94.929688 260.796875 92.683594 260.074219 90.203125 C 259.675781 88.832031 258.640625 87.332031 257.910156 86.105469 C 257.265625 85.015625 256.738281 83.5625 255.878906 82.621094 C 254.34375 80.9375 253.816406 81.246094 251.910156 81.449219 C 250.058594 81.644531 248.164062 81.25 246.363281 81.816406 C 244 82.558594 242.988281 84.066406 241.636719 86.007812 C 240.980469 86.949219 240.1875 87.816406 239.210938 88.414062 C 236.050781 90.351562 230.648438 88.820312 228.730469 92.886719 C 228.382812 93.621094 228.214844 94.382812 228.175781 95.152344 C 228.121094 96.261719 228.34375 97.390625 228.710938 98.46875 C 228.910156 99.050781 229.132812 99.632812 229.507812 100.117188 C 229.921875 100.65625 230.496094 101.042969 231.054688 101.417969 C 234.320312 103.617188 237.820312 104.761719 241.585938 103.046875 C 242.675781 102.554688 243.59375 101.75 244.652344 101.203125 C 245.714844 100.65625 247.066406 100.410156 248.066406 101.058594 C 246.570312 100.890625 245.25 102.339844 245.132812 103.839844 C 245.015625 105.339844 245.820312 106.777344 246.839844 107.878906 C 248.105469 109.242188 249.675781 110.679688 251.332031 111.539062 C 253.746094 112.792969 256.824219 112.265625 259.035156 110.683594 C 260.175781 109.863281 261.152344 108.742188 261.527344 107.382812 C 262.375 104.269531 259.390625 103.152344 258.414062 100.695312 C 257.980469 99.613281 257.929688 98.4375 258.121094 97.296875 " fill-opacity="1" fill-rule="nonzero"/><path fill="#2f2d27" d="M 272.585938 68.382812 C 269.945312 66.480469 265.164062 68.601562 261.90625 73.125 C 258.648438 77.648438 258.15625 82.859375 260.796875 84.761719 C 263.4375 86.664062 268.21875 84.539062 271.476562 80.015625 C 274.730469 75.492188 275.230469 70.285156 272.585938 68.382812 " fill-opacity="1" fill-rule="nonzero"/><path fill="#2f2d27" d="M 276.445312 86.261719 C 273.800781 84.363281 269.019531 86.484375 265.765625 91.007812 C 262.507812 95.53125 262.011719 100.738281 264.65625 102.640625 C 267.296875 104.546875 272.078125 102.421875 275.335938 97.898438 C 278.589844 93.375 279.085938 88.167969 276.445312 86.261719 " fill-opacity="1" fill-rule="nonzero"/><path fill="#2f2d27" d="M 256.949219 58.820312 C 253.808594 57.707031 249.714844 61.164062 247.804688 66.539062 C 245.902344 71.914062 246.898438 77.175781 250.042969 78.292969 C 253.183594 79.40625 257.273438 75.953125 259.183594 70.574219 C 261.089844 65.199219 260.09375 59.9375 256.949219 58.820312 " fill-opacity="1" fill-rule="nonzero"/><path fill="#2f2d27" d="M 239.652344 66 C 236.511719 64.886719 232.421875 68.34375 230.511719 73.71875 C 228.605469 79.09375 229.605469 84.355469 232.746094 85.46875 C 235.886719 86.585938 239.980469 83.132812 241.890625 77.753906 C 243.792969 72.378906 242.796875 67.117188 239.652344 66 " fill-opacity="1" fill-rule="nonzero"/><path fill="#2f2d27" d="M 89.429688 97.296875 C 89.828125 94.929688 92.105469 92.683594 91.386719 90.203125 C 90.984375 88.832031 89.953125 87.332031 89.222656 86.105469 C 88.574219 85.015625 88.046875 83.5625 87.1875 82.621094 C 85.652344 80.9375 85.125 81.246094 83.21875 81.449219 C 81.367188 81.644531 79.472656 81.25 77.671875 81.816406 C 75.308594 82.558594 74.296875 84.066406 72.945312 86.007812 C 72.289062 86.949219 71.496094 87.816406 70.519531 88.414062 C 67.359375 90.351562 61.957031 88.820312 60.039062 92.886719 C 59.695312 93.621094 59.523438 94.382812 59.484375 95.152344 C 59.429688 96.261719 59.648438 97.390625 60.019531 98.46875 C 60.21875 99.050781 60.445312 99.632812 60.816406 100.117188 C 61.230469 100.65625 61.804688 101.042969 62.363281 101.417969 C 65.628906 103.617188 69.132812 104.761719 72.894531 103.046875 C 73.984375 102.554688 74.902344 101.75 75.964844 101.203125 C 77.023438 100.65625 78.375 100.410156 79.375 101.058594 C 77.878906 100.890625 76.558594 102.339844 76.441406 103.839844 C 76.324219 105.339844 77.128906 106.777344 78.152344 107.878906 C 79.414062 109.242188 80.984375 110.679688 82.640625 111.539062 C 85.054688 112.792969 88.132812 112.265625 90.34375 110.683594 C 91.484375 109.863281 92.464844 108.742188 92.835938 107.382812 C 93.683594 104.269531 90.699219 103.152344 89.722656 100.695312 C 89.289062 99.613281 89.238281 98.4375 89.429688 97.296875 " fill-opacity="1" fill-rule="nonzero"/><path fill="#2f2d27" d="M 103.894531 68.382812 C 101.253906 66.480469 96.472656 68.601562 93.21875 73.125 C 89.960938 77.648438 89.464844 82.859375 92.105469 84.761719 C 94.75 86.664062 99.53125 84.539062 102.785156 80.015625 C 106.039062 75.492188 106.539062 70.285156 103.894531 68.382812 " fill-opacity="1" fill-rule="nonzero"/><path fill="#2f2d27" d="M 107.753906 86.261719 C 105.109375 84.363281 100.328125 86.484375 97.074219 91.007812 C 93.816406 95.53125 93.324219 100.738281 95.964844 102.640625 C 98.605469 104.546875 103.386719 102.421875 106.644531 97.898438 C 109.898438 93.375 110.394531 88.167969 107.753906 86.261719 " fill-opacity="1" fill-rule="nonzero"/><path fill="#2f2d27" d="M 88.257812 58.820312 C 85.117188 57.707031 81.023438 61.164062 79.117188 66.539062 C 77.210938 71.914062 78.207031 77.175781 81.351562 78.292969 C 84.492188 79.40625 88.582031 75.953125 90.492188 70.574219 C 92.398438 65.199219 91.402344 59.9375 88.257812 58.820312 " fill-opacity="1" fill-rule="nonzero"/><path fill="#2f2d27" d="M 70.964844 66 C 67.820312 64.886719 63.730469 68.34375 61.820312 73.71875 C 59.914062 79.09375 60.914062 84.355469 64.054688 85.46875 C 67.195312 86.585938 71.289062 83.132812 73.199219 77.753906 C 75.105469 72.378906 74.105469 67.117188 70.964844 66 " fill-opacity="1" fill-rule="nonzero"/></g></g></g></svg>