<svg xmlns="http://www.w3.org/2000/svg" xmlns:xlink="http://www.w3.org/1999/xlink" width="1080" zoomAndPan="magnify" viewBox="0 0 810 1439.999935" height="1920" preserveAspectRatio="xMidYMid meet" version="1.0"><defs><clipPath id="5cfef4b8ee"><path d="M 322.328125 1014 L 528.578125 1014 L 528.578125 1020 L 322.328125 1020 Z M 322.328125 1014 " clip-rule="nonzero"/></clipPath><clipPath id="c944bf0844"><path d="M 470 1000 L 513 1000 L 513 1024.691406 L 470 1024.691406 Z M 470 1000 " clip-rule="nonzero"/></clipPath><clipPath id="58cc9ad877"><path d="M 342 1000 L 384 1000 L 384 1024.691406 L 342 1024.691406 Z M 342 1000 " clip-rule="nonzero"/></clipPath></defs><path fill="#e8e0da" d="M 486.851562 989.382812 C 485.863281 1008.058594 476.828125 1015.890625 476.828125 1015.890625 L 374.074219 1015.890625 C 374.074219 1015.890625 362.835938 1003.101562 363.082031 983.949219 C 363.164062 977.648438 364.609375 969.425781 366.753906 961.222656 C 371.167969 944.449219 378.570312 927.753906 383.480469 927.753906 C 390.78125 927.753906 405.652344 947.710938 405.652344 947.710938 C 405.652344 947.710938 406.558594 947.402344 408.148438 947.007812 C 411.570312 946.121094 418.109375 944.714844 424.996094 944.882812 C 431.96875 945.046875 438.980469 946.390625 442.652344 947.195312 C 444.261719 947.546875 445.230469 947.816406 445.230469 947.816406 C 445.230469 947.816406 459.234375 928.085938 465.132812 927.753906 C 470 927.484375 478.210938 943.601562 483.035156 961.367188 C 485.65625 971.015625 487.285156 981.140625 486.851562 989.382812 Z M 486.851562 989.382812 " fill-opacity="1" fill-rule="nonzero"/><path fill="#7f6f67" d="M 483.035156 961.367188 C 476.582031 962.359375 468.703125 962.648438 460.597656 960.726562 C 448.695312 957.917969 444.34375 951.90625 442.652344 947.214844 C 444.261719 947.566406 445.230469 947.835938 445.230469 947.835938 C 445.230469 947.835938 459.234375 928.105469 465.132812 927.773438 C 470 927.507812 478.210938 943.621094 483.035156 961.390625 Z M 483.035156 961.367188 " fill-opacity="1" fill-rule="nonzero"/><path fill="#7f6f67" d="M 408.125 947.007812 C 406.476562 951.742188 402.164062 957.875 390.101562 960.726562 C 381.582031 962.753906 373.351562 962.339844 366.730469 961.222656 C 371.144531 944.449219 378.550781 927.753906 383.460938 927.753906 C 390.761719 927.753906 405.632812 947.710938 405.632812 947.710938 C 405.632812 947.710938 406.539062 947.402344 408.125 947.007812 Z M 408.125 947.007812 " fill-opacity="1" fill-rule="nonzero"/><path fill="#000000" d="M 373.148438 1017.957031 C 372.796875 1017.769531 372.464844 1017.460938 372.238281 1017.152344 C 372.238281 1017.152344 372.238281 1017.128906 372.238281 1017.128906 L 372.09375 1016.902344 C 371.992188 1016.738281 371.910156 1016.59375 371.828125 1016.425781 C 371.3125 1015.558594 370.796875 1014.566406 370.300781 1013.699219 C 365.226562 1004.21875 361.429688 993.699219 361.660156 982.8125 C 361.78125 978.785156 362.378906 974.796875 363.121094 970.851562 C 365.207031 960.398438 368.363281 950.230469 372.546875 940.460938 C 374.589844 936.101562 377.476562 928 382.40625 926.390625 C 385.234375 925.707031 388.242188 927.835938 390.328125 929.425781 C 396.410156 934.304688 402.105469 940.75 407.464844 946.410156 C 407.464844 946.410156 404.972656 945.625 404.972656 945.625 C 410.066406 944.675781 415.160156 943.953125 420.335938 943.683594 C 427.144531 943.332031 433.949219 944.117188 440.695312 944.984375 C 442.382812 945.210938 444.054688 945.4375 445.808594 945.6875 L 443.394531 946.554688 C 446.40625 943.207031 450.984375 938.042969 454.101562 934.839844 C 455.976562 932.941406 457.832031 931.058594 459.875 929.304688 C 460.925781 928.4375 462 927.589844 463.421875 926.949219 C 464.246094 926.617188 465.132812 926.410156 466.042969 926.597656 C 466.96875 926.78125 467.671875 927.238281 468.289062 927.671875 C 470.515625 929.386719 472.0625 931.761719 473.507812 934.097656 C 480.109375 945.542969 484.191406 958.308594 486.667969 971.265625 C 488.171875 979.734375 488.75 988.496094 487.183594 997.007812 C 485.925781 1004.011719 483.46875 1010.992188 479.097656 1016.695312 C 478.871094 1016.984375 478.5625 1017.355469 478.3125 1017.625 C 477.902344 1018.019531 477.363281 1018.183594 476.847656 1018.183594 C 442.300781 1018.183594 407.714844 1018.121094 373.1875 1017.976562 Z M 375.003906 1013.84375 C 408.972656 1013.722656 442.878906 1013.636719 476.828125 1013.636719 C 476.828125 1013.636719 475.34375 1014.195312 475.363281 1014.175781 C 475.363281 1014.175781 475.40625 1014.15625 475.40625 1014.15625 L 475.652344 1013.96875 C 479.550781 1010.664062 481.964844 1005.890625 483.574219 1001.097656 C 486.625 991.574219 486.070312 981.410156 484.089844 971.675781 C 481.488281 959.117188 477.675781 946.554688 471.28125 935.378906 C 470.1875 933.601562 467.09375 928.601562 464.84375 929.015625 C 463.566406 929.34375 462.433594 930.109375 461.277344 930.976562 C 459.296875 932.503906 457.503906 934.386719 455.875 936.371094 C 454.265625 938.269531 452.613281 940.480469 451.191406 942.527344 C 449.726562 944.652344 448.304688 946.84375 447.066406 949.074219 C 446.652344 949.796875 445.851562 950.171875 445.085938 950.027344 C 438.753906 947.898438 432.09375 946.410156 425.410156 946.183594 C 420.523438 946.015625 415.613281 946.742188 410.910156 948.125 C 409.734375 948.476562 408.582031 948.867188 407.445312 949.324219 C 407.074219 949.46875 406.683594 949.632812 406.375 949.796875 C 405.589844 950.191406 404.660156 949.984375 404.125 949.324219 L 403.878906 949.011719 C 399.875 942.503906 392.246094 932.445312 385.171875 929.570312 C 385.171875 929.570312 384.777344 929.449219 384.777344 929.449219 C 384.40625 929.324219 384.078125 929.261719 383.707031 929.242188 C 383.601562 929.242188 383.480469 929.222656 383.4375 929.242188 C 383.316406 929.242188 383.148438 929.304688 383.003906 929.386719 C 381.625 930.152344 380.488281 931.679688 379.539062 933 C 377.683594 935.605469 376.136719 938.414062 374.816406 941.367188 C 369.742188 953.3125 366.300781 966.097656 364.835938 978.992188 C 364.648438 980.914062 364.484375 982.832031 364.523438 984.753906 C 364.523438 987.917969 364.730469 991.222656 365.351562 994.300781 C 365.351562 994.300781 365.742188 996.179688 365.742188 996.179688 L 365.84375 996.65625 C 366.300781 998.351562 366.816406 1000.066406 367.453125 1001.695312 C 369.269531 1006.285156 371.785156 1010.703125 375.4375 1014.050781 C 375.4375 1014.050781 375.601562 1014.195312 375.601562 1014.195312 L 375.621094 1014.195312 C 375.621094 1014.195312 375.640625 1014.238281 375.621094 1014.195312 C 375.582031 1014.132812 375.519531 1014.070312 375.4375 1014.011719 C 375.3125 1013.886719 375.148438 1013.804688 374.980469 1013.742188 Z M 375.003906 1013.84375 " fill-opacity="1" fill-rule="nonzero"/><path fill="#ffc5c5" d="M 375.269531 958.019531 C 377.871094 960.046875 397.441406 955.996094 399.691406 950.542969 C 401.9375 945.085938 388.328125 936.554688 384.140625 937.464844 C 380.46875 938.269531 373.558594 956.679688 375.269531 958 Z M 375.269531 958.019531 " fill-opacity="1" fill-rule="nonzero"/><path fill="#ffc5c5" d="M 475.21875 958.019531 C 472.621094 960.046875 453.046875 955.996094 450.800781 950.542969 C 449.726562 947.960938 461.523438 936.554688 465.710938 937.464844 C 469.382812 938.269531 476.910156 956.679688 475.21875 958 Z M 475.21875 958.019531 " fill-opacity="1" fill-rule="nonzero"/><g clip-path="url(#5cfef4b8ee)"><path fill="#000000" d="M 525.957031 1019.320312 L 324.945312 1019.320312 C 323.503906 1019.320312 322.328125 1018.140625 322.328125 1016.695312 C 322.328125 1015.25 323.503906 1014.070312 324.945312 1014.070312 L 525.957031 1014.070312 C 527.402344 1014.070312 528.578125 1015.25 528.578125 1016.695312 C 528.578125 1018.140625 527.402344 1019.320312 525.957031 1019.320312 Z M 525.957031 1019.320312 " fill-opacity="1" fill-rule="nonzero"/></g><path fill="#7f6f67" d="M 491.019531 1002.976562 C 505.539062 1005.023438 512.449219 1009.917969 511.210938 1017.296875 C 509.972656 1024.671875 499.144531 1021.363281 499.144531 1021.363281 C 499.144531 1021.363281 495.886719 1022.355469 492.007812 1022.003906 C 488.378906 1021.675781 484.726562 1019.300781 484.726562 1019.300781 C 484.726562 1019.300781 482.027344 1020.351562 476.539062 1018.699219 C 473.054688 1017.667969 470.929688 1012.976562 473.878906 1008.617188 C 476.1875 1005.1875 481.613281 1001.65625 491.019531 1002.976562 Z M 491.019531 1002.976562 " fill-opacity="1" fill-rule="nonzero"/><g clip-path="url(#c944bf0844)"><path fill="#000000" d="M 491.265625 1001.179688 C 499.019531 1002.359375 509.746094 1004.21875 512.261719 1013.039062 C 512.714844 1014.753906 512.632812 1016.570312 512.242188 1018.265625 C 510.613281 1024.214844 503.476562 1023.78125 498.628906 1023.058594 C 498.628906 1023.058594 499.660156 1023.058594 499.660156 1023.058594 C 497.0625 1024.113281 494.257812 1024.359375 491.472656 1023.925781 C 488.625 1023.410156 486.253906 1022.128906 484.128906 1020.25 C 484.109375 1020.25 485.140625 1020.351562 485.140625 1020.351562 C 484.953125 1020.433594 484.851562 1020.476562 484.726562 1020.539062 C 482.253906 1021.488281 479.488281 1021.261719 476.972656 1020.683594 C 473.671875 1020.0625 471.402344 1017.5625 470.992188 1014.277344 C 470.496094 1010.3125 473.035156 1006.777344 475.859375 1004.300781 C 480.148438 1000.871094 486.046875 1000.476562 491.265625 1001.199219 Z M 490.769531 1004.773438 C 485.636719 1004.03125 480.046875 1004.835938 476.023438 1008.265625 C 474.539062 1009.609375 473.652344 1011.863281 474.148438 1013.742188 C 474.558594 1015.414062 475.734375 1016.65625 477.304688 1017.089844 C 479.507812 1017.769531 481.820312 1018.308594 484.128906 1018.265625 C 484.234375 1018.265625 485.179688 1018.371094 485.324219 1018.371094 C 487.429688 1019.070312 489.761719 1019.878906 491.925781 1020 C 493.863281 1020.105469 495.867188 1019.960938 497.824219 1019.753906 C 498.402344 1019.671875 499.082031 1019.671875 499.660156 1019.671875 C 502.980469 1021.199219 509.292969 1021.757812 509.992188 1017.109375 C 510.652344 1013.039062 508.488281 1010.808594 505.125 1009.03125 C 500.753906 1006.613281 495.761719 1005.558594 490.769531 1004.773438 Z M 490.769531 1004.773438 " fill-opacity="1" fill-rule="nonzero"/></g><path fill="#7f6f67" d="M 363.804688 1002.976562 C 349.285156 1005.023438 342.375 1009.917969 343.613281 1017.296875 C 344.847656 1024.671875 355.675781 1021.363281 355.675781 1021.363281 C 355.675781 1021.363281 358.9375 1022.355469 362.8125 1022.003906 C 366.445312 1021.675781 370.09375 1019.300781 370.09375 1019.300781 C 370.09375 1019.300781 372.796875 1020.351562 378.28125 1018.699219 C 381.769531 1017.667969 383.890625 1012.976562 380.941406 1008.617188 C 378.632812 1005.1875 373.207031 1001.65625 363.804688 1002.976562 Z M 363.804688 1002.976562 " fill-opacity="1" fill-rule="nonzero"/><path fill="#7f6f67" d="M 400.207031 977.171875 C 385.480469 977.648438 376.507812 1003.371094 395.339844 1008.722656 C 414.167969 1014.070312 458.617188 1013.140625 466.371094 1005.644531 C 474.992188 997.316406 464.390625 978.558594 451.871094 977.8125 C 433.722656 976.738281 433.703125 965.953125 425.453125 965.851562 C 416.148438 965.746094 417.65625 976.613281 400.207031 977.171875 Z M 400.207031 977.171875 " fill-opacity="1" fill-rule="nonzero"/><g clip-path="url(#58cc9ad877)"><path fill="#000000" d="M 363.554688 1001.179688 C 368.773438 1000.457031 374.695312 1000.871094 378.960938 1004.277344 C 381.789062 1006.757812 384.324219 1010.292969 383.832031 1014.257812 C 383.417969 1017.5625 381.148438 1020.0625 377.847656 1020.664062 C 375.332031 1021.242188 372.570312 1021.46875 370.09375 1020.519531 C 369.96875 1020.457031 369.867188 1020.414062 369.679688 1020.332031 C 369.679688 1020.332031 370.710938 1020.230469 370.691406 1020.230469 C 368.566406 1022.109375 366.195312 1023.390625 363.351562 1023.90625 C 360.542969 1024.339844 357.761719 1024.09375 355.160156 1023.039062 C 355.160156 1023.039062 356.191406 1023.039062 356.191406 1023.039062 C 351.347656 1023.761719 344.210938 1024.195312 342.582031 1018.246094 C 342.167969 1016.550781 342.085938 1014.734375 342.558594 1013.019531 C 345.074219 1004.195312 355.78125 1002.335938 363.554688 1001.160156 Z M 364.050781 1004.773438 C 359.058594 1005.558594 354.070312 1006.613281 349.695312 1009.03125 C 346.335938 1010.808594 344.167969 1013.039062 344.828125 1017.109375 C 345.53125 1021.777344 351.863281 1021.199219 355.160156 1019.671875 C 355.738281 1019.671875 356.398438 1019.671875 356.996094 1019.753906 C 358.9375 1019.960938 360.9375 1020.105469 362.894531 1020 C 365.0625 1019.855469 367.390625 1019.070312 369.496094 1018.371094 C 369.640625 1018.371094 370.589844 1018.246094 370.691406 1018.265625 C 373.003906 1018.308594 375.3125 1017.769531 377.519531 1017.089844 C 379.085938 1016.65625 380.261719 1015.414062 380.675781 1013.742188 C 381.191406 1011.863281 380.28125 1009.609375 378.796875 1008.265625 C 374.777344 1004.835938 369.1875 1004.050781 364.050781 1004.773438 Z M 364.050781 1004.773438 " fill-opacity="1" fill-rule="nonzero"/></g><path fill="#000000" d="M 430.875 994.257812 C 429.761719 994.734375 428.296875 995.1875 427.183594 994.464844 C 426.792969 994.21875 426.503906 993.867188 426.277344 993.496094 C 427.679688 993.101562 429.246094 991.902344 429.246094 991.035156 C 429.246094 990.167969 427.535156 989.300781 425.429688 989.300781 C 423.328125 989.300781 421.617188 989.980469 421.617188 991.035156 C 421.617188 992.089844 423.140625 993.121094 424.585938 993.515625 C 424.359375 993.90625 424.070312 994.238281 423.699219 994.484375 C 422.585938 995.210938 421.140625 994.753906 420.007812 994.28125 C 419.242188 993.949219 418.5625 995.085938 419.347656 995.414062 C 420.871094 996.054688 422.648438 996.550781 424.195312 995.707031 C 424.710938 995.414062 425.101562 995.023438 425.429688 994.570312 C 425.761719 995.023438 426.171875 995.414062 426.667969 995.707031 C 428.214844 996.574219 430.007812 996.054688 431.515625 995.414062 C 432.277344 995.085938 431.617188 993.949219 430.855469 994.28125 Z M 430.875 994.257812 " fill-opacity="1" fill-rule="nonzero"/><path fill="#ffabab" d="M 388.492188 999.050781 C 388.140625 999.734375 387.769531 1000.394531 387.417969 1001.078125 C 387.234375 1001.429688 387.316406 1001.902344 387.6875 1002.089844 C 388.058594 1002.273438 388.511719 1002.191406 388.699219 1001.820312 C 389.046875 1001.140625 389.417969 1000.476562 389.769531 999.796875 C 390.121094 999.113281 389.875 998.96875 389.503906 998.785156 C 389.152344 998.597656 388.675781 998.679688 388.492188 999.050781 Z M 388.492188 999.050781 " fill-opacity="1" fill-rule="nonzero"/><path fill="#ffabab" d="M 392.140625 999.300781 L 391.359375 1001.222656 C 391.296875 1001.386719 391.359375 1001.65625 391.441406 1001.800781 C 391.523438 1001.945312 391.710938 1002.109375 391.894531 1002.152344 C 392.082031 1002.191406 392.308594 1002.191406 392.472656 1002.070312 L 392.617188 1001.945312 C 392.699219 1001.863281 392.78125 1001.738281 392.800781 1001.613281 L 393.585938 999.691406 C 393.648438 999.527344 393.585938 999.257812 393.503906 999.113281 C 393.421875 998.96875 393.234375 998.804688 393.050781 998.761719 C 392.863281 998.722656 392.636719 998.722656 392.472656 998.84375 L 392.328125 998.96875 C 392.246094 999.050781 392.164062 999.175781 392.140625 999.300781 Z M 392.140625 999.300781 " fill-opacity="1" fill-rule="nonzero"/><path fill="#ffabab" d="M 396 999.671875 C 395.710938 1000.148438 395.441406 1000.601562 395.152344 1001.078125 C 394.863281 1001.550781 395.03125 1001.46875 395.070312 1001.65625 C 395.113281 1001.839844 395.257812 1002.007812 395.421875 1002.109375 C 395.585938 1002.214844 395.792969 1002.253906 396 1002.191406 C 396.207031 1002.128906 396.351562 1002.027344 396.453125 1001.839844 C 396.742188 1001.367188 397.007812 1000.910156 397.296875 1000.4375 C 397.585938 999.960938 397.421875 1000.042969 397.382812 999.859375 C 397.339844 999.671875 397.195312 999.507812 397.03125 999.402344 C 396.867188 999.300781 396.660156 999.257812 396.453125 999.320312 C 396.246094 999.382812 396.101562 999.484375 396 999.671875 Z M 396 999.671875 " fill-opacity="1" fill-rule="nonzero"/><path fill="#ffabab" d="M 457.109375 998.515625 L 456.492188 999.589844 C 456.390625 999.753906 456.367188 999.980469 456.410156 1000.167969 C 456.449219 1000.355469 456.59375 1000.519531 456.761719 1000.621094 C 456.925781 1000.726562 457.132812 1000.765625 457.335938 1000.703125 C 457.542969 1000.644531 457.6875 1000.539062 457.792969 1000.355469 C 457.996094 1000.003906 458.203125 999.628906 458.410156 999.28125 C 458.617188 998.929688 458.535156 998.886719 458.492188 998.699219 C 458.453125 998.515625 458.308594 998.351562 458.140625 998.246094 C 457.976562 998.144531 457.769531 998.101562 457.566406 998.164062 C 457.359375 998.226562 457.214844 998.328125 457.109375 998.515625 Z M 457.109375 998.515625 " fill-opacity="1" fill-rule="nonzero"/><path fill="#ffabab" d="M 461.628906 998.164062 C 461.320312 998.761719 460.988281 999.363281 460.679688 999.960938 C 460.371094 1000.558594 460.554688 1000.332031 460.597656 1000.539062 C 460.636719 1000.746094 460.78125 1000.890625 460.945312 1000.996094 C 461.296875 1001.179688 461.773438 1001.097656 461.957031 1000.726562 C 462.265625 1000.125 462.597656 999.527344 462.90625 998.929688 C 463.214844 998.328125 463.03125 998.554688 462.988281 998.351562 C 462.949219 998.144531 462.804688 998 462.636719 997.894531 C 462.289062 997.710938 461.8125 997.792969 461.628906 998.164062 Z M 461.628906 998.164062 " fill-opacity="1" fill-rule="nonzero"/><path fill="#ffabab" d="M 466.433594 998.164062 C 465.960938 998.804688 465.484375 999.445312 465.03125 1000.085938 C 464.578125 1000.726562 464.90625 1000.5 464.949219 1000.664062 C 464.988281 1000.828125 465.132812 1001.015625 465.300781 1001.117188 C 465.464844 1001.222656 465.671875 1001.261719 465.875 1001.199219 L 466.0625 1001.117188 C 466.164062 1001.054688 466.269531 1000.953125 466.332031 1000.847656 C 466.804688 1000.210938 467.277344 999.570312 467.734375 998.929688 C 467.835938 998.785156 467.855469 998.515625 467.816406 998.351562 C 467.773438 998.183594 467.628906 998 467.464844 997.894531 C 467.300781 997.792969 467.09375 997.75 466.886719 997.8125 L 466.703125 997.894531 C 466.597656 997.957031 466.496094 998.058594 466.433594 998.164062 Z M 466.433594 998.164062 " fill-opacity="1" fill-rule="nonzero"/><path fill="#000000" d="M 476.085938 991.140625 C 482.890625 990.4375 489.679688 989.734375 496.484375 989.03125 C 497.886719 988.886719 497.90625 986.65625 496.484375 986.800781 C 489.679688 987.503906 482.890625 988.207031 476.085938 988.90625 C 474.683594 989.050781 474.664062 991.285156 476.085938 991.140625 Z M 476.085938 991.140625 " fill-opacity="1" fill-rule="nonzero"/><path fill="#000000" d="M 478.105469 998.410156 C 484.171875 998.226562 490.214844 998.554688 496.195312 999.464844 C 497.597656 999.671875 498.195312 997.523438 496.792969 997.316406 C 490.605469 996.386719 484.378906 995.972656 478.105469 996.179688 C 476.683594 996.222656 476.664062 998.453125 478.105469 998.410156 Z M 478.105469 998.410156 " fill-opacity="1" fill-rule="nonzero"/><path fill="#000000" d="M 374.136719 991.140625 C 367.332031 990.4375 360.542969 989.734375 353.738281 989.03125 C 352.335938 988.886719 352.316406 986.65625 353.738281 986.800781 C 360.542969 987.503906 367.332031 988.207031 374.136719 988.90625 C 375.539062 989.050781 375.558594 991.285156 374.136719 991.140625 Z M 374.136719 991.140625 " fill-opacity="1" fill-rule="nonzero"/><path fill="#000000" d="M 372.117188 998.410156 C 366.050781 998.226562 360.007812 998.554688 354.027344 999.464844 C 348.046875 1000.375 352.027344 997.523438 353.429688 997.316406 C 359.617188 996.386719 365.84375 995.972656 372.117188 996.179688 C 373.539062 996.222656 373.558594 998.453125 372.117188 998.410156 Z M 372.117188 998.410156 " fill-opacity="1" fill-rule="nonzero"/><path fill="#000000" d="M 408.601562 990.085938 C 408.601562 990.652344 408.546875 991.21875 408.433594 991.773438 C 408.324219 992.332031 408.160156 992.875 407.941406 993.398438 C 407.726562 993.921875 407.460938 994.421875 407.144531 994.894531 C 406.828125 995.367188 406.472656 995.804688 406.070312 996.207031 C 405.667969 996.609375 405.230469 996.96875 404.761719 997.285156 C 404.289062 997.597656 403.789062 997.867188 403.265625 998.082031 C 402.742188 998.300781 402.203125 998.464844 401.644531 998.574219 C 401.089844 998.6875 400.527344 998.742188 399.960938 998.742188 C 399.390625 998.742188 398.828125 998.6875 398.273438 998.574219 C 397.714844 998.464844 397.175781 998.300781 396.652344 998.082031 C 396.128906 997.867188 395.628906 997.597656 395.15625 997.285156 C 394.6875 996.96875 394.25 996.609375 393.847656 996.207031 C 393.445312 995.804688 393.089844 995.367188 392.773438 994.894531 C 392.457031 994.421875 392.191406 993.921875 391.976562 993.398438 C 391.757812 992.875 391.59375 992.332031 391.484375 991.773438 C 391.371094 991.21875 391.316406 990.652344 391.316406 990.085938 C 391.316406 989.515625 391.371094 988.953125 391.484375 988.398438 C 391.59375 987.839844 391.757812 987.296875 391.976562 986.773438 C 392.191406 986.246094 392.457031 985.75 392.773438 985.277344 C 393.089844 984.804688 393.445312 984.367188 393.847656 983.964844 C 394.25 983.5625 394.6875 983.203125 395.15625 982.886719 C 395.628906 982.570312 396.128906 982.304688 396.652344 982.089844 C 397.175781 981.871094 397.714844 981.707031 398.273438 981.59375 C 398.828125 981.484375 399.390625 981.429688 399.960938 981.429688 C 400.527344 981.429688 401.089844 981.484375 401.644531 981.59375 C 402.203125 981.707031 402.742188 981.871094 403.265625 982.089844 C 403.789062 982.304688 404.289062 982.570312 404.761719 982.886719 C 405.230469 983.203125 405.667969 983.5625 406.070312 983.964844 C 406.472656 984.367188 406.828125 984.804688 407.144531 985.277344 C 407.460938 985.75 407.726562 986.246094 407.941406 986.773438 C 408.160156 987.296875 408.324219 987.839844 408.433594 988.398438 C 408.546875 988.953125 408.601562 989.515625 408.601562 990.085938 Z M 408.601562 990.085938 " fill-opacity="1" fill-rule="nonzero"/><path fill="#000000" d="M 452.738281 985.644531 C 450.800781 986.636719 448.839844 987.648438 446.964844 988.703125 C 445.5 989.589844 443.847656 990.394531 442.757812 991.65625 C 442.898438 991.40625 442.796875 990.851562 442.550781 990.621094 C 442.859375 990.851562 443.582031 991.035156 444.136719 991.160156 C 447.230469 991.800781 450.550781 991.925781 453.75 992.152344 C 455.335938 992.277344 455.378906 994.589844 453.789062 994.777344 C 450.40625 995.066406 442.425781 995.519531 439.972656 992.976562 C 437.414062 989.652344 443.105469 986.988281 445.4375 985.789062 C 447.5 984.777344 449.582031 983.929688 451.75 983.226562 C 452.429688 983 453.171875 983.371094 453.398438 984.054688 C 453.605469 984.691406 453.316406 985.355469 452.738281 985.644531 Z M 452.738281 985.644531 " fill-opacity="1" fill-rule="nonzero"/></svg>