<svg xmlns="http://www.w3.org/2000/svg" xmlns:xlink="http://www.w3.org/1999/xlink" width="900" zoomAndPan="magnify" viewBox="0 0 675 449.999984" height="600" preserveAspectRatio="xMidYMid meet" version="1.0"><defs><clipPath id="a7f34464fc"><path d="M 37.96875 73.125 L 337.5 73.125 L 337.5 377 L 37.96875 377 Z M 37.96875 73.125 " clip-rule="nonzero"/></clipPath><clipPath id="fa5b9096ae"><path d="M 55.96875 73.125 L 319.5 73.125 C 329.441406 73.125 337.5 81.183594 337.5 91.125 L 337.5 358.875 C 337.5 368.816406 329.441406 376.875 319.5 376.875 L 55.96875 376.875 C 46.027344 376.875 37.96875 368.816406 37.96875 358.875 L 37.96875 91.125 C 37.96875 81.183594 46.027344 73.125 55.96875 73.125 Z M 55.96875 73.125 " clip-rule="nonzero"/></clipPath><clipPath id="503f85774e"><path d="M 315.394531 73.125 L 637 73.125 L 637 376.875 L 315.394531 376.875 Z M 315.394531 73.125 " clip-rule="nonzero"/></clipPath><clipPath id="296e2a759b"><path d="M 333.394531 73.125 L 619.03125 73.125 C 628.972656 73.125 637.03125 81.183594 637.03125 91.125 L 637.03125 358.875 C 637.03125 368.816406 628.972656 376.875 619.03125 376.875 L 333.394531 376.875 C 323.453125 376.875 315.394531 368.816406 315.394531 358.875 L 315.394531 91.125 C 315.394531 81.183594 323.453125 73.125 333.394531 73.125 Z M 333.394531 73.125 " clip-rule="nonzero"/></clipPath><clipPath id="238e954b8c"><path d="M 315.394531 73.125 L 330.769531 73.125 L 330.769531 376.875 L 315.394531 376.875 Z M 315.394531 73.125 " clip-rule="nonzero"/></clipPath></defs><rect x="-67.5" width="810" fill="#ffffff" y="-44.999998" height="539.99998" fill-opacity="1"/><rect x="-67.5" width="810" fill="#687351" y="-44.999998" height="539.99998" fill-opacity="1"/><g clip-path="url(#a7f34464fc)"><g clip-path="url(#fa5b9096ae)"><path fill="#9ba17f" d="M 37.96875 73.125 L 337.5 73.125 L 337.5 377.335938 L 37.96875 377.335938 Z M 37.96875 73.125 " fill-opacity="1" fill-rule="nonzero"/></g></g><g clip-path="url(#503f85774e)"><g clip-path="url(#296e2a759b)"><path fill="#e8e4db" d="M 315.394531 73.125 L 636.945312 73.125 L 636.945312 376.875 L 315.394531 376.875 Z M 315.394531 73.125 " fill-opacity="1" fill-rule="nonzero"/></g></g><g clip-path="url(#238e954b8c)"><path fill="#ffffff" d="M 315.394531 73.125 L 330.769531 73.125 L 330.769531 376.851562 L 315.394531 376.851562 Z M 315.394531 73.125 " fill-opacity="1" fill-rule="nonzero"/></g></svg>