<svg xmlns="http://www.w3.org/2000/svg" xmlns:xlink="http://www.w3.org/1999/xlink" width="1080" zoomAndPan="magnify" viewBox="0 0 810 1439.999935" height="1920" preserveAspectRatio="xMidYMid meet" version="1.0"><path fill="#000000" d="M 553.011719 727.554688 C 550.507812 724.128906 547.375 721.277344 543.613281 718.824219 C 544.238281 718.367188 544.753906 717.96875 545.265625 717.566406 C 552.613281 712.148438 556.773438 705.242188 557.800781 696.910156 C 559.28125 684.527344 551.875 672.375 539.453125 666.554688 C 526.464844 660.507812 510.910156 661.761719 499.6875 669.921875 C 497.179688 671.746094 494.902344 673.746094 492.621094 675.796875 C 483.050781 684.359375 471.429688 688.921875 457.871094 689.664062 C 449.78125 690.121094 441.691406 690.347656 433.542969 690.40625 C 408.476562 690.691406 383.40625 690.976562 358.398438 691.035156 C 352.1875 691.035156 345.976562 690.632812 339.882812 689.949219 C 333.386719 689.265625 326.890625 687.953125 321.480469 684.472656 C 316.578125 681.332031 311.738281 677.96875 307.292969 674.316406 C 300.796875 668.953125 293.449219 665.527344 284.503906 665.015625 C 269.347656 664.214844 257.554688 669.636719 250.320312 681.21875 C 242.972656 692.917969 244.566406 704.5 253.566406 715.171875 C 255.503906 717.453125 258.125 719.28125 260.460938 721.390625 C 260.121094 721.675781 259.605469 722.074219 259.039062 722.476562 C 249.410156 729.835938 245.023438 739.082031 246.675781 750.09375 C 248.613281 762.988281 257.042969 771.890625 271.285156 775.769531 C 285.871094 779.707031 298.578125 776.226562 309.003906 766.46875 C 312.023438 763.617188 315.15625 760.820312 318.289062 758.023438 C 323.246094 753.628906 329.171875 750.550781 336.234375 749.578125 C 342.5 748.667969 348.882812 747.695312 355.207031 747.640625 C 385.628906 747.183594 416.109375 746.898438 446.589844 746.785156 C 452.800781 746.726562 459.066406 747.238281 465.277344 747.867188 C 473.820312 748.722656 481.34375 751.632812 487.382812 757.054688 C 490.402344 759.792969 493.535156 762.359375 496.496094 765.15625 C 499.972656 768.351562 504.015625 770.804688 508.574219 772.574219 C 514.386719 774.859375 520.539062 775.542969 526.921875 774.914062 C 552.785156 772.402344 566.972656 746.667969 553.011719 727.554688 Z M 405.457031 735.199219 C 404.941406 735.542969 404.089844 735.597656 403.746094 735.199219 C 398.5625 730.578125 394.003906 726.46875 389.675781 722.359375 C 371.898438 705.527344 397.308594 694.457031 403.347656 710.605469 C 404.488281 713.175781 405.398438 710.320312 408.363281 707.867188 C 413.546875 703.53125 417.019531 703.132812 421.523438 704.671875 C 424.257812 705.757812 425.851562 708.039062 426.078125 710.71875 C 426.363281 720.761719 415.597656 723.671875 405.457031 735.199219 Z M 405.457031 735.199219 " fill-opacity="1" fill-rule="nonzero"/></svg>