<svg xmlns="http://www.w3.org/2000/svg" xmlns:xlink="http://www.w3.org/1999/xlink" width="1080" zoomAndPan="magnify" viewBox="0 0 810 1439.999935" height="1920" preserveAspectRatio="xMidYMid meet" version="1.0"><path fill="#000000" d="M 427.613281 651.332031 C 436.382812 623.273438 476.800781 596.3125 503.917969 607.125 C 550.546875 625.613281 508.886719 719.5 452.976562 700.359375 C 429.148438 692.320312 421.472656 671.496094 427.613281 651.332031 Z M 331.503906 659.222656 C 329.675781 652.574219 329.238281 647.75 320.175781 635.769531 C 286.992188 592.4375 242.992188 609.316406 250.59375 655.714844 C 262.875 730.609375 339.835938 714.898438 331.503906 659.222656 Z M 366.367188 670.035156 C 394.066406 677.195312 416.941406 656.371094 421.402344 626.707031 C 424.03125 611.363281 411.386719 559.851562 375.648438 562.554688 C 343.707031 565.113281 327.921875 617.648438 342.613281 646.726562 C 347.875 656.957031 355.183594 667.257812 366.367188 670.035156 Z M 494.125 712.269531 C 464.085938 724.324219 460.722656 762.902344 483.378906 780.148438 C 521.238281 808.863281 566.992188 766.921875 565.601562 737.550781 C 564.214844 710.953125 533.515625 696.558594 494.125 712.269531 Z M 451.730469 743.90625 C 462.328125 771.011719 472.855469 808.570312 462.988281 835.96875 C 449.613281 872.648438 408.902344 880.101562 381.496094 859.644531 C 345.609375 832.902344 353.0625 837.871094 316.375 839.332031 C 258.414062 842.105469 246.355469 787.308594 283.410156 743.394531 C 316.519531 704.15625 386.097656 665.726562 424.910156 699.1875 C 441.207031 713.21875 446.398438 730.167969 451.730469 743.90625 Z M 420.160156 755.011719 C 411.753906 748.726562 404.007812 747.121094 390.121094 752.746094 C 382.078125 755.816406 378.277344 761.296875 377.546875 755.085938 C 375.792969 716.726562 314.472656 722.863281 340.640625 770.574219 C 346.996094 782.191406 353.867188 793.957031 361.6875 807.328125 C 362.054688 808.421875 363.953125 808.863281 365.269531 808.496094 C 394.652344 791.035156 419.5 792.277344 425.640625 770.792969 C 427.101562 765.09375 425.273438 759.25 420.160156 755.011719 Z M 420.160156 755.011719 " fill-opacity="1" fill-rule="nonzero"/></svg>